<svg width="50" height="50" viewBox="0 0 50 50" fill="none" xmlns="http://www.w3.org/2000/svg">
<circle cx="25" cy="25" r="25" fill="white"/>
<circle cx="25" cy="25" r="23" stroke="#264B91" stroke-opacity="0.15" stroke-width="4"/>
<g clip-path="url(#clip0_1837_6)">
<path d="M22.9952 12.8638C21.1901 13.3339 20.7489 13.6668 19.8865 15.1946C18.2418 18.0542 17.6401 20.2675 18.0212 22.0499C18.2218 23.0488 18.5427 23.558 20.2675 25.6538L21.1901 26.7311L18.6028 29.9041C17.1788 31.6473 15.9152 33.273 15.7749 33.4884C15.5943 33.841 15.6746 33.9977 16.3364 34.6049C17.961 36.0935 19.9667 37.582 20.3678 37.582C20.6687 37.582 21.3907 36.8769 22.7947 35.1925C23.8978 33.8606 24.9608 32.5875 25.1614 32.3524L25.5224 31.9019L27.8289 34.742C29.5337 36.8377 30.2558 37.5624 30.5967 37.5624C31.1784 37.582 35.2499 34.3307 35.2499 33.841C35.2499 33.6451 33.9863 31.9607 32.462 30.1L29.6741 26.7311L30.5767 25.6342C32.3216 23.5385 32.6224 23.0488 32.8431 21.9911C33.1439 20.5809 32.7628 18.6222 31.7801 16.6048C30.6368 14.2936 30.0351 13.5885 28.7114 13.0988C27.0868 12.5112 24.7001 12.4133 22.9952 12.8638ZM28.0094 14.4895L28.6913 14.7245L28.571 15.7822C28.5108 16.3894 28.4306 16.8986 28.3704 16.9378C28.3303 16.977 27.9894 16.9182 27.6083 16.8203C27.2473 16.7027 26.2444 16.6244 25.4221 16.6244C24.5998 16.6244 23.5969 16.7027 23.2359 16.8203C22.8548 16.9182 22.4938 16.9574 22.4337 16.9182C22.3935 16.8594 22.3133 16.3502 22.2531 15.7626C22.1529 14.6266 22.1328 14.6462 23.9179 14.1957C24.5597 14.039 27.2673 14.2152 28.0094 14.4895ZM21.5111 18.681C21.7517 19.2294 22.5139 20.3654 23.1958 21.1881L24.4193 22.6962L23.3763 23.9694C22.8147 24.6745 22.2732 25.2425 22.193 25.2425C21.852 25.2425 19.7461 22.4024 19.5856 21.7169C19.385 20.8355 19.6057 19.5428 20.2274 17.8975C20.6486 16.8007 20.6887 16.7615 20.8692 17.212C20.9695 17.4862 21.2503 18.1521 21.5111 18.681ZM30.6368 17.8779C30.8374 18.3676 31.0981 19.2294 31.2185 19.817C31.5995 21.8148 31.5394 21.8932 25.6828 29.0227C22.7546 32.607 20.3077 35.5646 20.2876 35.6038C20.2074 35.6821 18.1215 34.1544 17.8407 33.8018C17.7003 33.6451 19.365 31.471 23.2359 26.7115C27.528 21.4427 28.9721 19.5232 29.4735 18.4459C29.8346 17.6625 30.1555 17.0161 30.1956 17.0161C30.2156 17.0161 30.4162 17.4079 30.6368 17.8779ZM27.1871 18.3088C27.4278 18.3872 27.6283 18.5047 27.6283 18.5831C27.6283 18.8181 25.6227 21.3252 25.4221 21.3252C25.2215 21.3252 23.2159 18.8181 23.2159 18.5635C23.2159 18.4851 23.4164 18.3676 23.6772 18.3284C24.3792 18.1913 26.6857 18.1913 27.1871 18.3088ZM30.0752 29.7082C30.8173 30.6484 31.8402 31.9019 32.3416 32.5091L33.2442 33.6255L31.9806 34.6245C31.2987 35.1729 30.697 35.6234 30.6368 35.6038C30.5767 35.6038 29.6139 34.4678 28.5108 33.0967L26.465 30.5896L27.508 29.2969C28.0696 28.5918 28.571 28.0042 28.6312 28.0042C28.6913 28.0042 29.3331 28.7681 30.0752 29.7082Z" fill="#264B91"/>
</g>
<mask id="path-4-inside-1_1837_6" fill="white">
<path fill-rule="evenodd" clip-rule="evenodd" d="M30.6903 0.656193C26.5846 -0.303491 22.3132 -0.206975 18.2717 0.922416C17.276 1.20068 16.7746 2.28135 17.1266 3.25349V3.25349C17.4786 4.22568 18.5506 4.71976 19.5501 4.45531C21.2894 3.99516 23.1161 3.75 25 3.75C36.736 3.75 46.25 13.2639 46.25 25C46.25 36.736 36.736 46.25 25 46.25C17.198 46.25 10.378 42.0453 6.68243 35.7783C6.15722 34.8877 5.04718 34.4856 4.11334 34.9296V34.9296C3.17904 35.3737 2.77563 36.4954 3.28848 37.3939C5.36861 41.0379 8.33823 44.1091 11.9324 46.3128C16.0602 48.8437 20.8342 50.1215 25.6744 49.9909C30.5146 49.8603 35.2127 48.3269 39.198 45.5771C43.1834 42.8273 46.2844 38.9793 48.1245 34.5006C49.9645 30.0219 50.4644 25.1052 49.5634 20.3479C48.6624 15.5905 46.3993 11.1971 43.0489 7.70146C39.6986 4.20579 35.4052 1.75827 30.6903 0.656193Z"/>
</mask>
<path fill-rule="evenodd" clip-rule="evenodd" d="M30.6903 0.656193C26.5846 -0.303491 22.3132 -0.206975 18.2717 0.922416C17.276 1.20068 16.7746 2.28135 17.1266 3.25349V3.25349C17.4786 4.22568 18.5506 4.71976 19.5501 4.45531C21.2894 3.99516 23.1161 3.75 25 3.75C36.736 3.75 46.25 13.2639 46.25 25C46.25 36.736 36.736 46.25 25 46.25C17.198 46.25 10.378 42.0453 6.68243 35.7783C6.15722 34.8877 5.04718 34.4856 4.11334 34.9296V34.9296C3.17904 35.3737 2.77563 36.4954 3.28848 37.3939C5.36861 41.0379 8.33823 44.1091 11.9324 46.3128C16.0602 48.8437 20.8342 50.1215 25.6744 49.9909C30.5146 49.8603 35.2127 48.3269 39.198 45.5771C43.1834 42.8273 46.2844 38.9793 48.1245 34.5006C49.9645 30.0219 50.4644 25.1052 49.5634 20.3479C48.6624 15.5905 46.3993 11.1971 43.0489 7.70146C39.6986 4.20579 35.4052 1.75827 30.6903 0.656193Z" fill="#C4C4C4"/>
<path d="M30.6903 0.656193L28.6418 9.41996L30.6903 0.656193ZM11.9324 46.3128L7.22806 53.9854L7.22806 53.9854L11.9324 46.3128ZM25.6744 49.9909L25.4316 40.9942L25.4316 40.9942L25.6744 49.9909ZM48.1245 34.5006L39.7997 31.0804L39.7997 31.0804L48.1245 34.5006ZM49.5634 20.3479L40.7206 22.0226L40.7206 22.0226L49.5634 20.3479ZM43.0489 7.70146L49.5465 1.47398L49.5465 1.47398L43.0489 7.70146ZM6.68243 35.7783L-1.07005 40.3499L6.68243 35.7783ZM20.694 9.59033C23.2805 8.86753 26.0142 8.80578 28.6418 9.41996L32.7388 -8.10758C27.155 -9.41276 21.3459 -9.28148 15.8495 -7.74549L20.694 9.59033ZM21.8521 13.156C22.8468 12.8928 23.8999 12.75 25 12.75V-5.25C22.3322 -5.25 19.732 -4.90247 17.2482 -4.24532L21.8521 13.156ZM25 12.75C31.7655 12.75 37.25 18.2345 37.25 25H55.25C55.25 8.29339 41.7066 -5.25 25 -5.25V12.75ZM37.25 25C37.25 31.7655 31.7655 37.25 25 37.25V55.25C41.7066 55.25 55.25 41.7066 55.25 25H37.25ZM25 37.25C20.5134 37.25 16.5792 34.843 14.4349 31.2068L-1.07005 40.3499C4.1768 49.2476 13.8825 55.25 25 55.25V37.25ZM16.6368 38.6402C14.3365 37.2298 12.4359 35.2643 11.1047 32.9321L-4.52771 41.8556C-1.69873 46.8115 2.33992 50.9883 7.22806 53.9854L16.6368 38.6402ZM25.4316 40.9942C22.3339 41.0778 19.2786 40.26 16.6368 38.6402L7.22806 53.9854C12.8419 57.4275 19.3345 59.1652 25.9172 58.9876L25.4316 40.9942ZM34.0868 38.1693C31.5362 39.9292 28.5294 40.9106 25.4316 40.9942L25.9171 58.9876C32.4998 58.81 38.8892 56.7246 44.3093 52.9849L34.0868 38.1693ZM39.7997 31.0804C38.6221 33.9467 36.6374 36.4095 34.0868 38.1693L44.3093 52.9849C49.7294 49.2451 53.9468 44.0118 56.4493 37.9208L39.7997 31.0804ZM40.7206 22.0226C41.2973 25.0674 40.9773 28.214 39.7997 31.0804L56.4493 37.9208C58.9517 31.8298 59.6316 25.1431 58.4062 18.6731L40.7206 22.0226ZM36.5513 13.9289C38.6955 16.1662 40.144 18.9779 40.7206 22.0226L58.4062 18.6731C57.1808 12.2031 54.103 6.22809 49.5465 1.47398L36.5513 13.9289ZM28.6418 9.41996C31.6593 10.1253 34.4071 11.6917 36.5513 13.9289L49.5465 1.47398C44.99 -3.28012 39.151 -6.60875 32.7388 -8.10758L28.6418 9.41996ZM14.4349 31.2068C11.7995 26.7376 5.83405 24.1463 0.249172 26.8013L7.97751 43.0578C4.26032 44.825 0.514957 43.0378 -1.07005 40.3499L14.4349 31.2068ZM0.249172 26.8013C-4.99742 29.2956 -7.85951 36.0188 -4.52771 41.8556L11.1047 32.9321C13.4108 36.972 11.3555 41.4519 7.97751 43.0578L0.249172 26.8013ZM8.66415 6.31738C10.7701 12.134 16.8366 14.4829 21.8521 13.156L17.2482 -4.24532C20.2645 -5.04336 24.187 -3.68264 25.589 0.189604L8.66415 6.31738ZM15.8495 -7.74549C9.37771 -5.93695 6.68665 0.855542 8.66415 6.31738L25.589 0.189604C26.8626 3.70716 25.1743 8.33831 20.694 9.59033L15.8495 -7.74549Z" fill="#264B91" mask="url(#path-4-inside-1_1837_6)"/>
<defs>
<clipPath id="clip0_1837_6">
<rect width="32" height="25" fill="white" transform="translate(9 12.5)"/>
</clipPath>
</defs>
</svg>
