<svg width="50" height="50" viewBox="0 0 50 50" fill="none" xmlns="http://www.w3.org/2000/svg">
<circle cx="25" cy="25" r="25" fill="white"/>
<circle cx="25" cy="25" r="23" stroke="#264B91" stroke-opacity="0.15" stroke-width="4"/>
<path d="M18.636 12.3817C18.2588 12.4284 17.7766 12.5684 17.481 12.72C16.5555 13.1867 15.9877 13.9139 15.7388 14.9406C15.6649 15.2439 15.661 15.4695 15.661 23.6595V32.0711H15.1166H14.5721V28.785V25.4989H13.4638H12.3516L12.3632 28.9678C12.3749 32.2111 12.3827 32.4561 12.4488 32.6545C12.686 33.3661 13.1566 33.8678 13.8332 34.1323L14.086 34.2295L25.3949 34.2411C35.6499 34.2489 36.7271 34.245 36.9449 34.1867C37.3493 34.0817 37.6643 33.9028 37.9677 33.6073C38.2555 33.3273 38.3993 33.09 38.5432 32.6739C38.6171 32.4484 38.621 32.3473 38.6327 28.9678L38.6482 25.4989H37.536H36.4277V28.785V32.0711H35.8832H35.3388L35.3349 23.7178C35.3349 19.125 35.3271 15.2906 35.3155 15.1934C35.2299 14.4428 34.7477 13.595 34.1216 13.1011C33.7055 12.7706 33.1416 12.5061 32.636 12.4089C32.4843 12.3778 18.8655 12.3506 18.636 12.3817ZM32.4805 14.6528C32.7255 14.7617 32.8927 14.9173 33.0288 15.1661L33.1416 15.3684V17.8378V20.3073L33.0366 20.5056C32.9277 20.7117 32.741 20.8984 32.5271 21.015C32.4105 21.0811 32.0177 21.085 25.5466 21.0967C18.8849 21.1045 18.6827 21.1045 18.5193 21.0306C18.2782 20.9256 18.0566 20.7039 17.9516 20.4706L17.8582 20.2684V17.8378C17.8582 15.4539 17.8582 15.4034 17.9399 15.2323C18.0877 14.9134 18.321 14.7111 18.6555 14.6061C18.7099 14.5906 21.8016 14.575 25.5232 14.575L32.2977 14.5711L32.4805 14.6528ZM18.0332 23.1811C18.0332 23.1734 18.0643 23.1811 18.1032 23.2006C18.1382 23.22 18.2666 23.2511 18.3832 23.2706C18.4999 23.2861 21.7393 23.3017 25.5777 23.3017C32.9588 23.3017 32.6749 23.3095 33.0949 23.1461C33.1571 23.1189 33.161 23.3484 33.161 27.595V32.0711H25.4999H17.8388V27.5989V23.1267L17.936 23.1656C17.9905 23.185 18.0332 23.1928 18.0332 23.1811Z" fill="#264B91"/>
<path d="M25.1613 24.9083C24.3719 26.1255 23.6796 27.4166 23.4541 28.0855C23.3296 28.451 23.2907 28.9177 23.3607 29.2444C23.3841 29.3688 23.4735 29.606 23.5552 29.7694C24.1385 30.9322 25.6435 31.3249 26.7246 30.5977C26.9891 30.4188 27.2963 30.0649 27.4441 29.7694C27.8446 28.9683 27.7591 28.3538 27.0396 26.9577C26.6313 26.1644 25.5696 24.4105 25.4996 24.4105C25.488 24.4105 25.3363 24.636 25.1613 24.9083Z" fill="#264B91"/>
<path d="M33.1601 35.3308C33.1601 35.3697 33.1329 35.5019 33.1018 35.6303C33.024 35.9181 32.8295 36.1631 32.5651 36.3031L32.3629 36.4081L25.5768 36.4197C21.0851 36.4275 18.744 36.4158 18.6545 36.3925C18.2579 36.2758 17.9545 35.9414 17.8729 35.5214L17.8262 35.2881L17.2973 35.3114C17.0057 35.3269 16.5157 35.3503 16.2084 35.3619L15.6484 35.3892L15.6757 35.6925C15.734 36.3964 16.0957 37.1508 16.6284 37.6719C16.9434 37.9831 17.2429 38.1853 17.6473 38.3603C18.3045 38.6442 17.729 38.6247 25.499 38.6247H32.4795L32.8179 38.5392C34.1012 38.2125 35.0151 37.2636 35.2757 35.9842C35.3107 35.8247 35.3379 35.6225 35.3379 35.5408V35.3892L34.7662 35.3619C33.4051 35.3036 33.2534 35.2919 33.2107 35.2803C33.1834 35.2686 33.1601 35.2958 33.1601 35.3308Z" fill="#264B91"/>
<mask id="path-6-inside-1_1839_12" fill="white">
<path fill-rule="evenodd" clip-rule="evenodd" d="M31.8358 0.952534C27.3923 -0.310457 22.6981 -0.314402 18.2723 0.922406C17.2766 1.20067 16.7752 2.28135 17.1271 3.25349V3.25349C17.4791 4.22568 18.5511 4.71977 19.5507 4.45531C21.2899 3.99516 23.1166 3.75 25.0006 3.75C36.7366 3.75 46.2505 13.2639 46.2505 25C46.2505 36.736 36.7366 46.25 25.0006 46.25C14.3701 46.25 5.56274 38.4441 3.99774 28.2514C3.84059 27.2279 2.95688 26.4415 1.92358 26.5091V26.5091C0.89099 26.5766 0.101438 27.4701 0.246081 28.4948C0.888339 33.0444 2.77452 37.3424 5.71324 40.9059C9.05044 44.9525 13.5759 47.8471 18.649 49.1797C23.7221 50.5123 29.0859 50.2155 33.981 48.3314C38.8762 46.4472 43.0547 43.0711 45.9251 38.6809C48.7954 34.2908 50.2123 29.109 49.975 23.8692C49.7378 18.6293 47.8584 13.5968 44.6031 9.48405C41.3477 5.37128 36.8811 2.38661 31.8358 0.952534Z"/>
</mask>
<path fill-rule="evenodd" clip-rule="evenodd" d="M31.8358 0.952534C27.3923 -0.310457 22.6981 -0.314402 18.2723 0.922406C17.2766 1.20067 16.7752 2.28135 17.1271 3.25349V3.25349C17.4791 4.22568 18.5511 4.71977 19.5507 4.45531C21.2899 3.99516 23.1166 3.75 25.0006 3.75C36.7366 3.75 46.2505 13.2639 46.2505 25C46.2505 36.736 36.7366 46.25 25.0006 46.25C14.3701 46.25 5.56274 38.4441 3.99774 28.2514C3.84059 27.2279 2.95688 26.4415 1.92358 26.5091V26.5091C0.89099 26.5766 0.101438 27.4701 0.246081 28.4948C0.888339 33.0444 2.77452 37.3424 5.71324 40.9059C9.05044 44.9525 13.5759 47.8471 18.649 49.1797C23.7221 50.5123 29.0859 50.2155 33.981 48.3314C38.8762 46.4472 43.0547 43.0711 45.9251 38.6809C48.7954 34.2908 50.2123 29.109 49.975 23.8692C49.7378 18.6293 47.8584 13.5968 44.6031 9.48405C41.3477 5.37128 36.8811 2.38661 31.8358 0.952534Z" fill="#C4C4C4"/>
<path d="M31.8358 0.952534L34.2964 -7.70456L34.2964 -7.70456L31.8358 0.952534ZM5.71324 40.9059L12.6567 35.1798L5.71324 40.9059ZM18.649 49.1797L20.9356 40.475L20.9356 40.475L18.649 49.1797ZM33.981 48.3314L30.7481 39.9321L30.7481 39.9321L33.981 48.3314ZM44.6031 9.48405L51.6599 3.89831L51.6599 3.8983L44.6031 9.48405ZM19.5507 4.45531L17.2488 -4.24532L19.5507 4.45531ZM18.2723 0.922406L15.85 -7.7455L18.2723 0.922406ZM20.6946 9.59031C23.527 8.79877 26.5314 8.80133 29.3751 9.60962L34.2964 -7.70456C28.2532 -9.42224 21.8692 -9.42758 15.85 -7.7455L20.6946 9.59031ZM21.8526 13.156C22.8473 12.8928 23.9004 12.75 25.0006 12.75V-5.25C22.3328 -5.25 19.7326 -4.90247 17.2488 -4.24532L21.8526 13.156ZM25.0006 12.75C31.766 12.75 37.2505 18.2345 37.2505 25H55.2505C55.2505 8.29338 41.7072 -5.25 25.0006 -5.25V12.75ZM37.2505 25C37.2505 31.7655 31.766 37.25 25.0006 37.25V55.25C41.7072 55.25 55.2505 41.7066 55.2505 25H37.2505ZM25.0006 37.25C18.8806 37.25 13.7945 32.7535 12.8935 26.8856L-4.89801 29.6173C-2.66899 44.1347 9.85948 55.25 25.0006 55.25V37.25ZM12.6567 35.1798C10.776 32.8992 9.56876 30.1485 9.15772 27.2367L-8.66556 29.7528C-7.79208 35.9404 -5.22693 41.7856 -1.23022 46.632L12.6567 35.1798ZM20.9356 40.475C17.6888 39.6221 14.7925 37.7696 12.6567 35.1798L-1.23022 46.632C3.30837 52.1355 9.463 56.072 16.3624 57.8844L20.9356 40.475ZM30.7481 39.9321C27.6152 41.1379 24.1824 41.3279 20.9356 40.475L16.3624 57.8844C23.2619 59.6967 30.5566 59.2931 37.214 56.7306L30.7481 39.9321ZM38.3923 33.7558C36.5552 36.5655 33.881 38.7262 30.7481 39.9321L37.214 56.7306C43.8714 54.1682 49.5541 49.5767 53.4579 43.6061L38.3923 33.7558ZM40.9842 24.2763C41.1361 27.6298 40.2293 30.9461 38.3923 33.7558L53.4579 43.6061C57.3616 37.6355 59.2885 30.5883 58.9658 23.4621L40.9842 24.2763ZM37.5462 15.0698C39.6296 17.702 40.8324 20.9228 40.9842 24.2763L58.9658 23.4621C58.6432 16.3359 56.0872 9.49167 51.6599 3.89831L37.5462 15.0698ZM29.3751 9.60962C32.6042 10.5274 35.4627 12.4376 37.5462 15.0698L51.6599 3.8983C47.2326 -1.69506 41.1581 -5.75421 34.2964 -7.70456L29.3751 9.60962ZM12.8935 26.8856C12.1053 21.7522 7.51832 17.124 1.3363 17.5283L2.51086 35.4899C-1.60455 35.759 -4.42413 32.7037 -4.89801 29.6173L12.8935 26.8856ZM1.3363 17.5283C-4.461 17.9074 -9.60503 23.0977 -8.66556 29.7528L9.15772 27.2367C9.80791 31.8426 6.24298 35.2458 2.51086 35.4899L1.3363 17.5283ZM8.6647 6.31738C10.7707 12.134 16.8372 14.4829 21.8526 13.156L17.2488 -4.24532C20.2651 -5.04336 24.1876 -3.68264 25.5895 0.189606L8.6647 6.31738ZM15.85 -7.7455C9.37843 -5.93698 6.68715 0.855397 8.6647 6.31738L25.5895 0.189606C26.8632 3.70731 25.1747 8.33832 20.6946 9.59031L15.85 -7.7455Z" fill="#264B91" mask="url(#path-6-inside-1_1839_12)"/>
</svg>
