<svg width="50" height="50" viewBox="0 0 50 50" fill="none" xmlns="http://www.w3.org/2000/svg">
<circle cx="25" cy="25" r="25" fill="white"/>
<circle cx="25" cy="25" r="23" stroke="#264B91" stroke-opacity="0.15" stroke-width="4"/>
<path d="M22.3213 15.1314C20.9189 15.5733 19.4825 16.0238 19.1341 16.1343C18.7856 16.2448 17.4427 16.6612 16.1593 17.0692C14.8759 17.4772 13.533 17.8936 13.1846 18.0041C10.4818 18.837 8.34847 19.5255 8.19548 19.6275C8.07649 19.704 8 19.8315 8 19.9589C8 20.1799 8.26348 20.5114 8.44196 20.5114C8.49296 20.5114 9.03691 20.6644 9.64886 20.8599C11.6462 21.4803 13.1336 21.9648 13.1591 21.9903C13.1761 22.0073 13.0146 22.3387 12.8106 22.7297C12.6066 23.1207 12.3516 23.7071 12.2581 24.0301C12.0542 24.693 11.8247 25.9934 11.8247 26.4779C11.8247 26.7244 11.7652 26.8349 11.5357 27.0303C10.6858 27.7358 10.5923 28.9427 11.3402 29.7501L11.6802 30.1156L11.4082 32.1384C11.2637 33.2433 11.0682 34.7052 10.9747 35.3766C10.8048 36.626 10.8218 36.8385 11.1107 36.949C11.1787 36.9745 11.9267 37 12.7681 37C14.2045 37 14.298 36.9915 14.4679 36.8215C14.6124 36.677 14.6379 36.575 14.5954 36.3286C14.5699 36.1586 14.3745 34.6882 14.1535 33.0563L13.7625 30.0986L14.0685 29.7841C14.8249 29.0107 14.7824 27.7953 13.9665 27.0813L13.6605 26.8179L13.7965 25.8914C13.873 25.39 14.0005 24.778 14.077 24.5486C14.3575 23.7156 14.9099 22.7722 15.1819 22.6617C15.2839 22.6277 17.2982 23.2397 23.0012 25.0585C23.9786 25.3645 24.8796 25.628 24.9986 25.628C25.1855 25.628 26.4604 25.237 32.8179 23.2312C33.6848 22.9507 36.0561 22.2113 38.0874 21.5738C40.1188 20.9364 41.8356 20.3754 41.8951 20.3244C42.0651 20.1799 42.0226 19.7635 41.8101 19.6275C41.6996 19.5595 40.6967 19.2195 39.5748 18.871C36.3026 17.8426 27.2594 15.0039 26.112 14.6384C25.534 14.4599 25.0156 14.3069 24.9646 14.3154C24.9136 14.3154 23.7237 14.6809 22.3213 15.1314Z" fill="#264B91"/>
<path d="M15.785 25.3898C15.6661 26.8772 15.5471 29.6224 15.5981 29.8774C15.836 31.0928 18.2073 32.3847 21.0886 32.8692C22.678 33.1326 23.6554 33.1921 25.5932 33.1496C28.194 33.0901 29.7749 32.8267 31.6022 32.1382C32.5966 31.7642 33.2426 31.3733 33.8035 30.8208C34.458 30.1749 34.475 30.0899 34.3475 27.7866C34.288 26.7072 34.22 25.5938 34.186 25.3048L34.135 24.7863L32.4351 25.3133C31.5002 25.6108 29.6814 26.1802 28.398 26.5882C25.0918 27.6421 25.1852 27.6166 24.4968 27.4636C24.1908 27.3871 23.6299 27.2341 23.2559 27.1151C19.8987 26.0527 16.244 24.8968 16.0655 24.8458L15.836 24.7778L15.785 25.3898Z" fill="#264B91"/>
<mask id="path-5-inside-1_1837_6" fill="white">
<path fill-rule="evenodd" clip-rule="evenodd" d="M33.1223 1.3562C28.3168 -0.2946 23.1373 -0.437315 18.2718 0.922381C17.2761 1.20065 16.7746 2.28135 17.1266 3.25349V3.25349C17.4786 4.22568 18.5506 4.71976 19.5501 4.45531C21.2894 3.99516 23.1161 3.75 25 3.75C36.736 3.75 46.25 13.2639 46.25 25C46.25 36.736 36.736 46.25 25 46.25C13.2639 46.25 3.75 36.736 3.75 25C3.75 22.9748 4.03331 21.0157 4.56246 19.1603C4.84603 18.166 4.37249 17.0846 3.40714 16.7142V16.7142C2.44194 16.3438 1.35198 16.8246 1.05483 17.8148C-0.397209 22.6536 -0.353059 27.8349 1.20604 32.671C2.9572 38.1027 6.51409 42.7719 11.2858 45.9026C16.0575 49.0333 21.7567 50.4372 27.4366 49.881C33.1165 49.3248 38.4351 46.8419 42.5088 42.845C46.5825 38.8481 49.166 33.5777 49.8302 27.9094C50.4944 22.2411 49.1991 16.5162 46.1598 11.6858C43.1204 6.85543 38.5198 3.21036 33.1223 1.3562Z"/>
</mask>
<path fill-rule="evenodd" clip-rule="evenodd" d="M33.1223 1.3562C28.3168 -0.2946 23.1373 -0.437315 18.2718 0.922381C17.2761 1.20065 16.7746 2.28135 17.1266 3.25349V3.25349C17.4786 4.22568 18.5506 4.71976 19.5501 4.45531C21.2894 3.99516 23.1161 3.75 25 3.75C36.736 3.75 46.25 13.2639 46.25 25C46.25 36.736 36.736 46.25 25 46.25C13.2639 46.25 3.75 36.736 3.75 25C3.75 22.9748 4.03331 21.0157 4.56246 19.1603C4.84603 18.166 4.37249 17.0846 3.40714 16.7142V16.7142C2.44194 16.3438 1.35198 16.8246 1.05483 17.8148C-0.397209 22.6536 -0.353059 27.8349 1.20604 32.671C2.9572 38.1027 6.51409 42.7719 11.2858 45.9026C16.0575 49.0333 21.7567 50.4372 27.4366 49.881C33.1165 49.3248 38.4351 46.8419 42.5088 42.845C46.5825 38.8481 49.166 33.5777 49.8302 27.9094C50.4944 22.2411 49.1991 16.5162 46.1598 11.6858C43.1204 6.85543 38.5198 3.21036 33.1223 1.3562Z" fill="#C4C4C4"/>
<path d="M33.1223 1.3562L36.0463 -7.15557L36.0463 -7.15557L33.1223 1.3562ZM1.20604 32.671L-7.35981 35.4326L-7.35981 35.4326L1.20604 32.671ZM11.2858 45.9026L6.34863 53.4275L6.34864 53.4275L11.2858 45.9026ZM27.4366 49.881L26.5594 40.9238L26.5594 40.9238L27.4366 49.881ZM49.8302 27.9094L58.769 28.9568L58.769 28.9567L49.8302 27.9094ZM20.6941 9.59027C23.8079 8.7201 27.1229 8.81149 30.1983 9.86797L36.0463 -7.15557C29.5107 -9.40069 22.4666 -9.59473 15.8495 -7.74551L20.6941 9.59027ZM21.8521 13.156C22.8468 12.8928 23.8999 12.75 25 12.75V-5.25C22.3322 -5.25 19.732 -4.90247 17.2482 -4.24532L21.8521 13.156ZM25 12.75C31.7655 12.75 37.25 18.2345 37.25 25H55.25C55.25 8.29339 41.7066 -5.25 25 -5.25V12.75ZM37.25 25C37.25 31.7655 31.7655 37.25 25 37.25V55.25C41.7066 55.25 55.25 41.7066 55.25 25H37.25ZM25 37.25C18.2345 37.25 12.75 31.7655 12.75 25H-5.25C-5.25 41.7066 8.29339 55.25 25 55.25V37.25ZM12.75 25C12.75 23.8178 12.9149 22.6892 13.2174 21.6286L-4.09245 16.692C-4.84827 19.3422 -5.25 22.1317 -5.25 25H12.75ZM9.77189 29.9094C8.7741 26.8145 8.7458 23.4983 9.67506 20.4016L-7.5654 15.228C-9.54021 21.8088 -9.48022 28.8554 -7.35981 35.4326L9.77189 29.9094ZM16.2229 38.3777C13.169 36.374 10.8926 33.3858 9.77189 29.9094L-7.35981 35.4326C-4.97824 42.8197 -0.140863 49.1697 6.34863 53.4275L16.2229 38.3777ZM26.5594 40.9238C22.9243 41.2798 19.2768 40.3813 16.2229 38.3777L6.34864 53.4275C12.8381 57.6853 20.5891 59.5946 28.3137 58.8381L26.5594 40.9238ZM36.2057 36.4208C33.5985 38.9788 30.1946 40.5678 26.5594 40.9238L28.3137 58.8381C36.0384 58.0817 43.2717 54.705 48.8119 49.2692L36.2057 36.4208ZM40.8914 26.862C40.4663 30.4897 38.8128 33.8628 36.2057 36.4208L48.8119 49.2692C54.3522 43.8334 57.8658 36.6656 58.769 28.9568L40.8914 26.862ZM38.5423 16.4789C40.4875 19.5704 41.3164 23.2343 40.8914 26.862L58.769 28.9567C59.6723 21.2479 57.9108 13.462 53.7772 6.8927L38.5423 16.4789ZM30.1983 9.86797C33.6527 11.0546 36.5971 13.3875 38.5423 16.4789L53.7772 6.8927C49.6437 0.323378 43.3868 -4.63391 36.0463 -7.15557L30.1983 9.86797ZM6.63145 8.3116C1.20777 6.23038 -5.63419 8.7925 -7.5654 15.228L9.67506 20.4016C8.33815 24.8567 3.67612 26.4573 0.182836 25.1168L6.63145 8.3116ZM13.2174 21.6286C14.6403 16.6392 12.4076 10.5281 6.63145 8.3116L0.182836 25.1168C-3.66263 23.6412 -4.94825 19.6928 -4.09245 16.692L13.2174 21.6286ZM8.66415 6.31738C10.7701 12.134 16.8366 14.4829 21.8521 13.156L17.2482 -4.24532C20.2645 -5.04336 24.187 -3.68264 25.589 0.189604L8.66415 6.31738ZM15.8495 -7.74551C9.37827 -5.93707 6.68646 0.855036 8.66415 6.31738L25.589 0.189604C26.8627 3.70767 25.1739 8.33837 20.6941 9.59027L15.8495 -7.74551Z" fill="#264B91" mask="url(#path-5-inside-1_1837_6)"/>
</svg>
