<svg width="51" height="50" viewBox="0 0 51 50" fill="none" xmlns="http://www.w3.org/2000/svg">
<circle cx="25.5" cy="24.9922" r="25" fill="white"/>
<circle cx="25.5" cy="24.9922" r="23" stroke="#264B91" stroke-opacity="0.15" stroke-width="4"/>
<g clip-path="url(#clip0_1059_316)">
<path d="M17.2506 18.2852C18.3893 18.2852 19.3131 17.3613 19.3131 16.2227C19.3131 15.084 18.3893 14.1602 17.2506 14.1602C16.112 14.1602 15.1881 15.084 15.1881 16.2227C15.1881 17.3613 16.112 18.2852 17.2506 18.2852ZM33.7507 18.2852C34.8893 18.2852 35.8132 17.3613 35.8132 16.2227C35.8132 15.084 34.8893 14.1602 33.7507 14.1602C32.612 14.1602 31.6882 15.084 31.6882 16.2227C31.6882 17.3613 32.612 18.2852 33.7507 18.2852ZM39.1518 34.2738L37.2612 29.5473L35.4952 31.541L35.4092 32.323L36.5995 35.2965C36.8143 35.8336 37.3299 36.1602 37.8757 36.1602C38.0475 36.1602 38.2194 36.1301 38.387 36.0613C39.0917 35.7777 39.4354 34.9785 39.1518 34.2738ZM37.6823 25.259L36.8874 21.8129C36.6897 20.9535 36.0882 20.2316 35.276 19.8836C34.4811 19.5398 33.6003 19.5957 32.8655 20.0254C31.8901 20.6012 31.1596 21.5078 30.7987 22.5777L30.3132 24.0344L29.6257 24.4727V20.3477C29.6257 19.9695 29.3163 19.6602 28.9382 19.6602H22.0631C21.685 19.6602 21.3756 19.9695 21.3756 20.3477V24.4727L20.6838 24.0344L20.1983 22.5777C19.8417 21.5035 19.1069 20.6012 18.1315 20.0254C17.3924 19.5957 16.5159 19.5398 15.721 19.8836C14.9088 20.2316 14.3073 20.9535 14.1096 21.8129L13.319 25.259C13.1213 26.1184 13.3491 27.0293 13.9378 27.6953L16.8253 30.9566L17.2592 34.9355C17.3366 35.6359 17.9296 36.1602 18.6256 36.1602C18.6772 36.1602 18.7245 36.1559 18.776 36.1516C19.5323 36.0699 20.0737 35.391 19.9921 34.6348L19.5581 30.6473C19.4936 30.0887 19.2616 29.5687 18.8878 29.1434L17.0272 27.0379L17.7835 24.0172L18.0756 24.8937C18.2518 25.4309 18.587 25.8992 19.1284 26.2945L21.3241 27.691C21.5217 27.8156 21.844 27.8887 22.0631 27.9059H28.9382C29.1573 27.8887 29.4796 27.8156 29.6772 27.691L31.8729 26.2945C32.4143 25.8992 32.7495 25.4352 32.9257 24.8937L33.2178 24.0172L33.9741 27.0379L32.1135 29.1434C31.7397 29.5687 31.5077 30.0887 31.4432 30.6473L31.0092 34.6348C30.9276 35.391 31.4733 36.0699 32.2253 36.1516C32.2768 36.1559 32.3241 36.1602 32.3757 36.1602C33.0674 36.1602 33.6647 35.6402 33.7421 34.9355L34.176 30.9566L37.0635 27.6953C37.6479 27.0293 37.8799 26.1184 37.6823 25.259ZM13.7401 29.5473L11.8495 34.2738C11.5659 34.9785 11.9096 35.7777 12.6143 36.0613C13.3362 36.3449 14.1225 35.9883 14.4018 35.2965L15.5921 32.323L15.5061 31.541L13.7401 29.5473Z" fill="#264B91"/>
</g>
<mask id="path-4-inside-1_1059_316" fill="white">
<path fill-rule="evenodd" clip-rule="evenodd" d="M32.8513 1.09743C28.2602 -0.315004 23.3728 -0.371201 18.7718 0.914581C17.776 1.19285 17.2746 2.27354 17.6266 3.24568C17.9786 4.21786 19.0506 4.71195 20.0501 4.4475C21.7894 3.98735 23.6161 3.74219 25.5 3.74219C37.236 3.74219 46.75 13.2561 46.75 24.9922C46.75 36.7282 37.236 46.2422 25.5 46.2422C13.7639 46.2422 4.25 36.7282 4.25 24.9922C4.25 24.8588 4.25123 24.7257 4.25368 24.5928C4.27274 23.5583 3.53623 22.6346 2.50737 22.5242C1.47763 22.4137 0.545842 23.1593 0.512781 24.1945C0.360313 28.9682 1.57879 33.7005 4.04334 37.8222C6.82962 42.4819 11.0571 46.108 16.0867 48.1523C21.1164 50.1965 26.6749 50.5479 31.9219 49.1533C37.169 47.7587 41.8194 44.6939 45.1703 40.4221C48.5212 36.1503 50.3904 30.9038 50.4954 25.4756C50.6004 20.0474 48.9354 14.7325 45.7522 10.3344C42.569 5.93624 38.0405 2.69389 32.8513 1.09743Z"/>
</mask>
<path fill-rule="evenodd" clip-rule="evenodd" d="M32.8513 1.09743C28.2602 -0.315004 23.3728 -0.371201 18.7718 0.914581C17.776 1.19285 17.2746 2.27354 17.6266 3.24568C17.9786 4.21786 19.0506 4.71195 20.0501 4.4475C21.7894 3.98735 23.6161 3.74219 25.5 3.74219C37.236 3.74219 46.75 13.2561 46.75 24.9922C46.75 36.7282 37.236 46.2422 25.5 46.2422C13.7639 46.2422 4.25 36.7282 4.25 24.9922C4.25 24.8588 4.25123 24.7257 4.25368 24.5928C4.27274 23.5583 3.53623 22.6346 2.50737 22.5242C1.47763 22.4137 0.545842 23.1593 0.512781 24.1945C0.360313 28.9682 1.57879 33.7005 4.04334 37.8222C6.82962 42.4819 11.0571 46.108 16.0867 48.1523C21.1164 50.1965 26.6749 50.5479 31.9219 49.1533C37.169 47.7587 41.8194 44.6939 45.1703 40.4221C48.5212 36.1503 50.3904 30.9038 50.4954 25.4756C50.6004 20.0474 48.9354 14.7325 45.7522 10.3344C42.569 5.93624 38.0405 2.69389 32.8513 1.09743Z" fill="#C4C4C4"/>
<path d="M32.8513 1.09743L35.4977 -7.50468L35.4977 -7.50468L32.8513 1.09743ZM4.04334 37.8222L-3.68108 42.441H-3.68108L4.04334 37.8222ZM45.1703 40.4221L52.2516 45.9769L52.2516 45.9768L45.1703 40.4221ZM50.4954 25.4756L59.4937 25.6496L50.4954 25.4756ZM21.1941 9.58248C24.1386 8.75961 27.2667 8.79561 30.2049 9.69954L35.4977 -7.50468C29.2538 -9.42562 22.607 -9.50201 16.3495 -7.75332L21.1941 9.58248ZM22.3521 13.1481C23.3468 12.885 24.3999 12.7422 25.5 12.7422V-5.25781C22.8322 -5.25781 20.232 -4.91028 17.7482 -4.25314L22.3521 13.1481ZM25.5 12.7422C32.2655 12.7422 37.75 18.2267 37.75 24.9922H55.75C55.75 8.28557 42.2066 -5.25781 25.5 -5.25781V12.7422ZM37.75 24.9922C37.75 31.7577 32.2655 37.2422 25.5 37.2422V55.2422C42.2066 55.2422 55.75 41.6988 55.75 24.9922H37.75ZM25.5 37.2422C18.7345 37.2422 13.25 31.7577 13.25 24.9922H-4.75C-4.75 41.6988 8.79338 55.2422 25.5 55.2422V37.2422ZM13.25 24.9922C13.25 24.9141 13.2507 24.8362 13.2521 24.7587L-4.74479 24.427C-4.74826 24.6151 -4.75 24.8035 -4.75 24.9922H13.25ZM11.7678 33.2034C10.1905 30.5656 9.41062 27.5369 9.50819 24.4818L-8.48263 23.9072C-8.68999 30.3996 -7.03292 36.8354 -3.68108 42.441L11.7678 33.2034ZM19.4755 39.8146C16.2566 38.5063 13.551 36.1856 11.7678 33.2034L-3.68108 42.441C0.10826 48.7782 5.85761 53.7097 12.698 56.4899L19.4755 39.8146ZM29.61 40.4553C26.2519 41.3479 22.6945 41.123 19.4755 39.8146L12.698 56.4899C19.5383 59.2701 27.0978 59.748 34.2338 57.8513L29.61 40.4553ZM38.089 34.8673C35.9444 37.6013 32.9682 39.5627 29.61 40.4553L34.2338 57.8513C41.3698 55.9546 47.6944 51.7865 52.2516 45.9769L38.089 34.8673ZM41.4971 25.3016C41.4299 28.7756 40.2336 32.1334 38.089 34.8673L52.2516 45.9768C56.8088 40.1672 59.3509 33.032 59.4937 25.6496L41.4971 25.3016ZM38.4614 15.6112C40.4987 18.426 41.5643 21.8275 41.4971 25.3016L59.4937 25.6496C59.6365 18.2672 57.3721 11.039 53.043 5.05756L38.4614 15.6112ZM30.2049 9.69954C33.5259 10.7213 36.4242 12.7964 38.4614 15.6112L53.043 5.05756C48.7138 -0.923907 42.5551 -5.3335 35.4977 -7.50468L30.2049 9.69954ZM3.46789 13.5756C-2.30947 12.9555 -8.26804 17.1882 -8.48263 23.9072L9.50819 24.4818C9.35972 29.1304 5.26472 31.8719 1.54686 31.4728L3.46789 13.5756ZM13.2521 24.7587C13.348 19.5601 9.61116 14.235 3.46789 13.5756L1.54686 31.4728C-2.5387 31.0343 -4.80247 27.5564 -4.74479 24.427L13.2521 24.7587ZM9.16415 6.30957C11.2701 12.1262 17.3366 14.4751 22.3521 13.1481L17.7482 -4.25314C20.7645 -5.05117 24.687 -3.69045 26.089 0.181792L9.16415 6.30957ZM16.3495 -7.75332C9.87807 -5.94484 7.18653 0.847405 9.16415 6.30957L26.089 0.181792C27.3627 3.69967 25.674 8.33054 21.1941 9.58248L16.3495 -7.75332Z" fill="#264B91" mask="url(#path-4-inside-1_1059_316)"/>
<defs>
<clipPath id="clip0_1059_316">
<rect width="27.5" height="22" fill="white" transform="translate(11.75 14.1602)"/>
</clipPath>
</defs>
</svg>
