<svg width="1138" height="593" viewBox="0 0 1138 593" fill="none" xmlns="http://www.w3.org/2000/svg">
<g clip-path="url(#clip0_562_1284)">
<path d="M552.922 1.00122C539.212 2.4023 530.005 4.70407 527.003 7.50622C524.401 9.90806 523.4 14.0112 525.501 14.0112C530.505 14.0112 557.926 16.4131 565.532 17.5139C575.44 18.915 583.446 21.517 583.446 23.2183C583.446 23.7187 582.645 23.9188 581.544 23.5185C570.836 20.1159 542.214 17.614 522.899 18.3145C492.676 19.5154 475.863 23.8187 477.765 29.8233C479.066 33.9265 481.368 34.2267 499.281 33.0258C511.491 32.2252 519.297 32.2252 527.703 32.9257C542.314 34.3268 558.427 39.1305 558.427 42.0327C558.427 43.5339 545.217 43.2336 523.7 41.4323C503.184 39.6309 478.666 39.9311 469.358 42.0327C459.951 44.1343 450.344 50.239 450.344 54.2421C450.344 54.7425 464.054 54.9426 482.168 54.8425C504.585 54.6424 516.695 54.9426 523.4 55.9434C545.817 59.0458 560.428 63.249 560.428 66.4515C560.428 68.9534 553.823 70.3544 545.016 69.754C540.513 69.4538 527.203 68.3529 515.394 67.4522C489.774 65.5508 451.244 65.9511 442.338 68.2528C431.629 71.055 428.327 73.8571 428.327 80.2621C428.327 86.667 427.226 86.4668 459.05 85.7663C499.081 84.8656 522.899 86.767 546.417 92.5715C568.434 98.0757 586.548 107.283 597.457 118.491C601.36 122.595 601.66 123.095 599.658 123.095C598.357 123.095 592.053 121.294 585.648 118.992C559.828 109.985 552.222 107.883 542.915 107.383C534.709 106.882 533.608 107.083 531.206 109.084C529.104 110.685 528.404 112.086 528.404 114.688C528.404 117.591 529.004 118.391 532.707 120.693C560.128 138.006 578.842 152.317 594.554 168.33C603.061 176.936 603.862 179.238 602.36 190.246C601.059 199.253 601.059 199.353 603.361 201.055C618.473 212.464 685.925 204.858 699.935 190.246C702.838 187.244 706.741 173.834 708.642 160.223C710.143 149.715 709.242 125.297 707.041 115.089C701.036 87.4676 687.826 63.3491 667.51 42.9334C636.286 11.6094 595.555 -3.30208 552.922 1.00122Z" fill="#C52B23"/>
<path d="M470.861 124.596C451.746 129 444.24 132.903 441.238 139.608C436.534 150.116 434.232 173.834 436.234 190.847C438.536 210.762 445.841 230.678 456.95 247.39C474.764 274.111 505.987 293.926 539.313 299.631C561.23 303.333 590.853 299.931 594.155 293.226C594.856 291.825 595.056 290.424 594.656 290.023C594.155 289.523 586.649 288.722 577.843 288.222C560.029 287.121 552.523 285.82 547.419 283.118C544.117 281.417 544.117 281.317 546.419 281.216C547.82 281.216 554.525 282.217 561.43 283.418C589.351 288.222 632.785 285.119 634.987 278.114C635.487 276.713 635.087 275.412 634.086 274.311C632.585 272.91 629.282 272.71 609.167 272.71C586.749 272.61 585.649 272.51 577.042 269.908C572.138 268.407 567.235 266.605 566.034 265.905C564.032 264.804 564.032 264.704 566.934 264.303C568.636 264.103 580.345 264.504 592.954 265.204C619.575 266.705 639.59 266.105 647.296 263.703C653.1 261.902 658.004 257.999 659.005 254.296C659.605 252.194 659.505 251.994 656.803 252.494C650.198 253.795 611.368 254.296 600.46 253.195C587.95 251.994 568.736 247.891 565.833 245.689C564.332 244.688 564.232 244.088 565.233 242.887C567.335 240.385 573.339 240.185 589.452 241.886C599.359 242.887 614.971 243.487 632.485 243.588C663.108 243.688 669.613 242.687 675.618 237.183C678.52 234.381 679.421 230.177 677.719 227.475C677.119 226.575 668.812 226.274 644.994 226.374C619.975 226.474 610.368 226.174 600.96 224.873C570.137 220.57 543.216 210.362 533.108 199.153C531.007 196.952 529.405 194.75 529.405 194.25C529.405 192.849 535.71 194.55 550.422 200.054C566.634 205.959 578.143 208.561 584.448 207.66C590.152 206.759 591.453 205.658 591.453 201.555C591.453 198.353 590.853 197.752 579.244 190.046C563.231 179.338 557.327 174.835 543.817 162.926C526.403 147.614 526.003 146.813 527.804 132.502L528.605 126.498L524.802 125.297C511.191 121.294 486.372 120.993 470.861 124.596Z" fill="#1F4A8F"/>
<path d="M811.422 344.565C803.216 347.768 801.615 349.269 806.618 349.269C808.52 349.269 809.921 349.969 810.622 351.17C811.923 353.672 812.023 410.216 810.622 413.718C810.121 415.119 808.62 416.52 807.119 416.921C805.718 417.221 804.617 417.922 804.617 418.422C804.617 419.723 827.334 419.523 828.135 418.322C828.435 417.721 827.935 417.321 826.934 417.321C825.933 417.321 824.032 416.621 822.831 415.72L820.629 414.219V378.291C820.629 358.576 820.329 342.163 819.929 341.963C819.428 341.663 815.625 342.864 811.422 344.565Z" fill="white"/>
<path d="M87.3662 344.965C83.8635 346.366 81.0614 347.867 81.0614 348.268C81.0614 348.768 82.5625 349.268 84.2638 349.469C86.9659 349.669 87.6664 350.269 88.1668 352.771C89.3677 358.075 89.1676 409.815 87.9667 413.118C87.2661 415.319 86.0652 416.42 83.9636 416.82C77.6587 418.221 81.6618 419.322 93.0706 419.322C99.6756 419.322 105.08 419.022 105.08 418.522C105.08 418.121 103.579 417.121 101.877 416.32C97.6741 414.318 97.1737 412.217 97.3739 395.104L97.574 380.993L101.177 378.091C105.98 374.188 111.685 373.387 115.087 376.089C117.589 378.091 117.589 378.291 117.89 395.904C118.19 413.218 118.19 413.818 116.088 415.519C114.887 416.52 112.986 417.321 111.985 417.321C110.984 417.321 110.084 417.721 110.084 418.321C110.084 418.922 114.787 419.322 122.093 419.322C129.398 419.322 134.102 418.922 134.102 418.321C134.102 417.721 133.402 417.321 132.601 417.321C131.8 417.321 130.199 416.42 129.098 415.319C127.297 413.518 127.097 412.017 127.097 397.506C127.097 379.892 126.196 375.188 122.093 371.085C119.791 368.783 118.39 368.283 114.587 368.283C109.283 368.283 105.78 369.884 101.677 374.188C99.9759 375.889 98.3746 377.29 97.8743 377.29C97.4739 377.29 97.0736 369.384 97.0736 359.777C97.0736 339.661 97.7742 340.662 87.3662 344.965Z" fill="white"/>
<path d="M147.312 343.465C146.612 344.165 146.111 345.867 146.111 347.268C146.111 350.67 147.813 352.271 151.315 352.271C153.117 352.271 154.618 351.471 155.719 349.77C157.22 347.468 157.22 347.067 155.719 344.766C153.917 342.064 149.414 341.363 147.312 343.465Z" fill="white"/>
<path d="M203.455 344.966C199.952 346.367 197.15 347.868 197.15 348.269C197.15 348.769 198.651 349.27 200.353 349.47C203.055 349.67 203.755 350.27 204.256 352.772C205.156 357.076 205.257 371.286 204.456 371.286C203.956 371.186 202.554 370.586 201.153 369.785C197.451 367.684 188.744 367.884 184.24 370.286C176.534 374.189 171.13 383.296 170.33 393.504C169.729 402.11 171.431 408.115 175.734 413.219C182.439 421.025 192.447 422.326 200.853 416.421L205.156 413.319V416.821C205.156 421.025 205.557 421.025 214.364 417.522C220.869 414.82 223.27 412.518 218.767 413.119C213.863 413.719 213.663 412.518 213.363 376.09C212.962 337.561 213.963 340.563 203.455 344.966ZM200.153 374.089C204.056 378.092 205.156 382.895 205.156 397.006V409.115L202.054 411.717C195.749 417.022 186.942 414.019 182.339 405.112C179.237 399.008 178.836 387.199 181.638 380.494C185.341 371.387 194.348 368.284 200.153 374.089Z" fill="white"/>
<path d="M498.682 344.965C495.179 346.366 492.377 347.867 492.377 348.268C492.377 348.768 493.878 349.268 495.679 349.469C498.782 349.769 498.882 349.969 499.582 355.273C500.383 362.278 500.383 407.813 499.482 411.817C499.082 413.918 497.881 415.319 495.679 416.32C493.878 417.121 492.377 418.121 492.377 418.522C492.377 419.022 497.781 419.322 504.386 419.322C510.991 419.322 516.395 418.922 516.395 418.522C516.395 418.121 514.894 417.221 512.993 416.52C508.79 414.919 508.389 413.318 508.389 395.404C508.389 381.693 508.389 381.693 511.191 379.091C514.794 375.689 517.696 374.288 520.899 374.288C528.104 374.288 529.405 377.89 529.405 397.906C529.405 412.017 529.205 413.518 527.404 415.319C526.303 416.42 524.502 417.321 523.401 417.321C522.3 417.321 521.399 417.721 521.399 418.321C521.399 418.922 526.103 419.322 533.408 419.322C540.014 419.322 545.418 419.022 545.418 418.522C545.418 418.121 543.917 417.121 542.115 416.32L538.913 414.819L538.412 396.305C537.912 381.493 537.512 377.19 536.111 374.588C533.709 370.084 530.706 368.283 525.602 368.283C520.499 368.283 516.996 369.884 512.993 374.188C511.291 375.889 509.69 377.29 509.19 377.29C508.79 377.29 508.389 369.384 508.389 359.777C508.389 339.661 509.09 340.662 498.682 344.965Z" fill="white"/>
<path d="M644.493 344.366C641.891 349.069 646.094 353.473 651.398 351.771C654 350.971 655.101 347.168 653.5 344.366C652.699 342.865 651.498 342.264 648.996 342.264C646.494 342.264 645.294 342.865 644.493 344.366Z" fill="white"/>
<path d="M750.874 344.966C744.069 347.668 742.868 349.269 747.472 349.269C749.173 349.269 750.774 349.87 751.275 350.47C751.675 351.171 752.275 365.982 752.576 383.295L753.076 414.819L758.08 417.321C765.385 421.024 775.293 420.924 781.798 417.121C790.805 411.817 795.609 403.11 795.609 392.402C795.609 378.091 788.203 368.284 777.395 368.284C771.59 368.284 767.787 369.985 764.184 374.288L761.582 377.491V359.877C761.582 339.462 762.183 340.262 750.874 344.966ZM778.596 377.591C783.399 380.793 785.801 385.397 786.301 392.703C787.703 410.216 777.395 420.824 765.485 414.119L761.582 411.917V396.205V380.393L764.385 378.492C769.889 374.589 773.892 374.388 778.596 377.591Z" fill="white"/>
<path d="M450.344 344.565C434.632 348.068 424.224 359.577 421.322 376.59C418.419 393.203 426.325 410.216 440.136 417.021C445.24 419.523 446.841 419.823 456.348 419.823C465.255 419.823 467.457 419.523 470.96 417.622C476.564 414.619 480.467 411.217 483.87 406.313C487.973 400.308 485.971 400.108 480.867 406.013C472.06 416.12 459.651 418.622 447.942 412.918C436.934 407.514 432.83 398.107 433.531 379.893C433.931 370.485 434.332 367.883 436.733 362.779C441.737 351.771 447.642 347.868 458.85 347.868C469.959 347.868 477.164 352.772 481.668 363.48C484.07 369.284 485.271 369.685 484.77 364.481C484.57 362.479 484.17 356.875 483.769 351.971C483.469 347.167 482.869 343.264 482.468 343.264C482.068 343.264 481.167 344.365 480.567 345.766C479.166 348.769 477.465 348.869 470.86 346.367C463.954 343.765 456.849 343.164 450.344 344.565Z" fill="white"/>
<path d="M0.999838 346.266C0.999838 346.767 2.30084 347.267 3.90207 347.267C5.50329 347.267 7.80506 348.168 9.10606 349.168L11.5079 351.07V381.493C11.5079 415.619 11.4078 415.92 5.00291 416.92C-3.40354 418.321 1.6003 419.322 16.5117 419.322C31.123 419.322 36.0267 418.422 28.8212 416.92C22.3162 415.619 22.016 414.719 22.016 397.405V381.793L36.5271 396.405C52.2392 412.117 53.4401 414.419 48.0359 416.72C46.3346 417.421 45.3339 418.221 45.7342 418.622C46.7349 419.622 80.0605 419.422 80.0605 418.422C80.0605 418.021 77.2584 416.62 73.8558 415.319C68.3515 413.318 66.0498 411.416 50.1376 395.704L32.524 378.291L47.1352 363.88C59.6448 351.37 62.3469 349.168 66.35 348.068C68.952 347.367 71.0536 346.466 71.0536 346.066C71.0536 345.666 64.9489 345.265 57.5432 345.265C44.8335 345.265 40.33 346.266 47.0352 347.567C49.437 348.068 50.0375 348.768 50.0375 350.87C50.0375 353.672 39.6295 365.181 27.8204 375.489L22.016 380.492V365.881C22.016 352.571 22.2161 351.07 24.0175 349.268C25.1183 348.168 27.32 347.267 29.0213 347.267C30.7227 347.267 32.0236 346.767 32.0236 346.266C32.0236 345.666 26.2192 345.265 16.5117 345.265C6.80429 345.265 0.999838 345.666 0.999838 346.266Z" fill="white"/>
<path d="M909.697 353.773C909.697 358.777 910.098 362.279 910.698 362.279C911.298 362.279 911.699 361.179 911.699 359.777C911.699 358.476 913.1 355.774 914.801 353.773C917.904 350.27 917.904 350.27 926.31 350.27H934.716V381.294V412.418L932.215 414.82C930.914 416.221 928.612 417.322 927.211 417.322C925.81 417.322 924.709 417.722 924.709 418.322C924.709 419.623 954.432 419.723 955.132 418.422C955.432 417.922 953.931 417.322 951.83 416.921C945.124 415.921 945.225 416.421 944.924 381.594L944.624 350.27H953.131C960.736 350.27 961.837 350.57 964.639 352.872C966.441 354.373 967.942 356.775 968.342 358.877C969.443 365.082 970.744 362.48 970.744 353.773V345.266H940.221H909.697V353.773Z" fill="white"/>
<path d="M372.287 356.976C371.586 359.077 368.384 363.38 365.181 366.483L359.377 372.187L363.08 372.487L366.783 372.788L367.283 394.104C367.783 415.12 367.783 415.52 370.185 417.422C375.089 421.425 383.896 418.723 387.398 412.118C389 409.216 387.599 408.615 385.197 411.217C382.495 414.119 378.291 413.719 376.59 410.316C375.689 408.615 375.289 402.41 375.289 390.501V373.288H379.693C385.097 373.288 387.298 372.487 387.298 370.686C387.298 369.685 385.797 369.285 381.294 369.285H375.289V361.279C375.289 356.875 374.889 353.273 374.489 353.273C374.088 353.273 373.087 354.974 372.287 356.976Z" fill="white"/>
<path d="M678.519 356.674C677.218 360.877 671.213 367.883 667.31 369.884C663.708 371.786 664.308 372.686 669.012 372.486L672.514 372.386V390.6C672.514 400.608 673.015 410.516 673.515 412.517C674.816 417.121 677.818 419.322 682.822 419.322C686.025 419.322 687.426 418.622 690.628 415.419C694.331 411.716 695.532 409.315 693.731 409.315C693.23 409.315 692.029 410.215 691.029 411.316C688.627 413.918 685.024 413.818 683.122 411.116C681.821 409.315 681.521 405.512 681.521 391.101V373.287L685.825 373.187C692.63 372.987 692.93 372.887 693.33 370.985C693.631 369.484 692.83 369.284 687.626 369.284H681.521V361.278C681.521 352.771 680.42 351.07 678.519 356.674Z" fill="white"/>
<path d="M1119.26 359.077C1117.36 362.679 1114.55 366.082 1111.55 368.284C1109.05 370.185 1107.15 371.887 1107.35 372.087C1107.55 372.287 1109.35 372.487 1111.25 372.487H1114.85V390.601C1114.85 400.609 1115.35 410.516 1115.85 412.518C1118.46 421.825 1130.57 421.625 1135.37 412.217C1137.17 408.915 1136.07 408.415 1133.37 411.317C1130.97 413.919 1127.36 413.819 1125.46 411.117C1124.16 409.315 1123.86 405.512 1123.86 391.101V373.288H1126.76C1131.67 373.288 1135.87 372.087 1135.87 370.686C1135.87 369.685 1134.27 369.285 1129.87 369.285H1123.86V361.278C1123.86 356.875 1123.56 353.272 1123.16 353.272C1122.66 353.272 1120.96 355.874 1119.26 359.077Z" fill="white"/>
<path d="M145.411 370.985C138.505 373.887 137.505 375.288 142.108 375.288C146.511 375.288 147.112 377.89 147.112 395.804C147.112 413.418 146.511 416.12 142.108 416.92C135.603 418.221 139.706 419.322 151.115 419.322C157.72 419.322 163.124 419.022 163.124 418.522C163.124 418.121 161.623 417.121 159.822 416.32L156.619 414.819L156.319 391.501L156.119 368.283L153.817 368.383C152.616 368.383 148.813 369.584 145.411 370.985Z" fill="white"/>
<path d="M229.476 371.086C222.671 373.788 221.47 375.289 226.173 375.289C228.075 375.289 229.476 375.99 230.176 377.191C231.477 379.693 231.477 411.817 230.176 414.319C229.676 415.32 227.875 416.421 226.173 416.821C224.472 417.222 223.371 417.922 223.771 418.422C224.472 419.723 248.19 419.623 248.19 418.322C248.19 417.722 247.39 417.322 246.389 417.322C245.388 417.322 243.587 416.621 242.386 415.72C240.284 414.219 240.184 413.619 240.184 397.306V380.393L243.487 377.891C249.791 373.088 257.097 373.188 259.699 378.292C260.9 380.493 261.2 384.897 261.2 397.606C261.2 415.22 261.1 415.52 255.896 416.821C249.992 418.322 253.794 419.323 265.704 419.323C277.613 419.323 281.416 418.322 275.511 416.821C270.307 415.52 270.207 415.22 270.207 397.206V380.293L274.911 377.291C280.315 373.788 284.918 373.488 288.321 376.19C290.623 378.092 290.723 378.592 291.023 395.905C291.323 413.218 291.323 413.819 289.222 415.52C288.021 416.521 286.119 417.322 285.118 417.322C284.118 417.322 283.217 417.722 283.217 418.322C283.217 418.923 287.921 419.323 295.226 419.323C302.532 419.323 307.235 418.923 307.235 418.322C307.235 417.722 306.535 417.322 305.734 417.322C304.934 417.322 303.332 416.421 302.232 415.32C300.43 413.519 300.23 412.018 300.23 397.206C300.23 379.092 299.329 374.389 294.926 370.686C292.724 368.784 290.923 368.284 286.82 368.284C281.215 368.284 279.014 369.385 273.009 375.189C270.007 377.991 269.206 378.292 269.206 376.891C269.206 375.89 267.705 373.588 265.804 371.687C262.901 368.784 261.7 368.284 257.697 368.284C252.093 368.284 249.992 369.285 244.487 374.589L240.184 378.692V373.488C240.184 368.684 239.984 368.284 237.982 368.384C236.681 368.384 232.878 369.585 229.476 371.086Z" fill="white"/>
<path d="M321.146 370.385C313.34 374.988 311.638 385.296 318.744 385.296C321.846 385.296 323.247 383.395 323.247 379.091C323.247 373.988 326.05 371.285 331.053 371.285C336.257 371.285 338.959 374.288 339.76 380.893L340.461 385.997L334.656 388.098C325.449 391.501 316.943 396.705 314.441 400.408C307.936 409.815 317.043 422.825 327.651 419.322C329.552 418.722 332.955 416.92 335.157 415.219C337.458 413.618 339.46 412.317 339.66 412.317C339.86 412.317 340.26 413.718 340.661 415.319C341.762 421.124 348.467 421.024 354.271 415.119C358.074 411.416 358.574 407.813 354.872 411.316C350.068 415.72 349.568 414.118 349.067 394.603C348.667 375.188 348.167 373.487 342.963 370.285C338.359 367.382 326.15 367.483 321.146 370.385ZM340.26 398.807V408.214L336.558 410.816C331.454 414.218 326.15 414.218 323.347 410.716C318.444 404.511 322.247 397.005 332.755 392.202C336.057 390.6 339.06 389.399 339.56 389.299C339.96 389.299 340.26 393.603 340.26 398.807Z" fill="white"/>
<path d="M559.229 370.385C551.423 374.489 549.821 385.297 557.127 385.297C559.829 385.297 561.43 382.595 561.43 377.991C561.43 373.688 564.032 371.286 568.836 371.286C571.338 371.286 573.239 371.987 574.841 373.588C577.342 376.09 579.144 383.996 577.543 385.597C577.042 386.098 573.439 387.799 569.536 389.4C554.825 395.305 550.021 400.208 550.722 408.615C551.022 412.118 551.923 414.219 553.824 416.221C558.728 421.325 565.133 421.024 573.039 415.32C578.143 411.717 578.443 411.717 578.443 414.619C578.443 420.524 585.449 421.124 591.453 415.72C596.257 411.317 597.058 408.114 592.454 411.517C587.55 415.12 587.05 413.619 586.65 393.503C586.349 383.796 585.849 374.989 585.249 373.988C584.748 372.987 582.847 371.286 581.145 370.285C576.642 367.483 564.433 367.583 559.229 370.385ZM578.243 399.007L577.943 408.715L573.94 411.017C568.436 414.119 564.132 414.019 561.53 410.716C556.627 404.512 560.429 397.006 570.938 392.202C574.24 390.601 577.342 389.4 577.743 389.3C578.143 389.3 578.343 393.703 578.243 399.007Z" fill="white"/>
<path d="M608.467 368.984C607.666 369.284 604.464 370.685 601.461 372.086L595.957 374.688L599.96 375.188C603.863 375.789 603.963 375.889 604.664 380.793C605.464 387.098 605.464 407.813 604.564 411.817C604.163 413.918 602.962 415.319 600.761 416.32C598.959 417.121 597.458 418.121 597.458 418.522C597.458 419.022 603.062 419.322 609.968 419.322C621.977 419.322 625.98 418.221 619.375 416.82C614.671 415.72 613.47 411.716 613.47 396.805C613.47 383.895 613.971 381.693 617.774 377.49C620.176 374.888 622.678 374.688 624.479 376.79C625.98 378.591 630.584 378.791 632.285 377.09C635.688 373.687 632.085 368.283 626.28 368.283C623.178 368.283 621.977 369.084 618.074 373.387L613.47 378.491V373.387C613.47 368.083 612.67 367.382 608.467 368.984Z" fill="white"/>
<path d="M642.794 371.085C635.889 374.088 634.888 375.288 639.491 375.288C641.393 375.288 642.794 375.989 643.494 377.19C644.095 378.391 644.495 386.397 644.495 396.205C644.495 412.017 644.295 413.518 642.494 415.319C641.393 416.42 639.792 417.321 638.991 417.321C638.19 417.321 637.49 417.721 637.49 418.321C637.49 418.922 641.993 419.322 648.899 419.322C655.504 419.322 660.608 418.922 661.008 418.321C661.308 417.721 660.708 417.321 659.607 417.321C658.406 417.321 656.605 416.42 655.504 415.319C653.602 413.418 653.502 412.017 653.502 390.8V368.283L651.3 368.383C649.999 368.383 646.197 369.684 642.794 371.085Z" fill="white"/>
<path d="M709.044 369.684C705.241 371.386 700.538 376.79 700.538 379.392C700.538 382.694 702.439 385.296 704.841 385.296C708.143 385.296 709.544 383.395 709.544 379.092C709.544 373.988 712.347 371.286 717.35 371.286C722.554 371.286 725.457 374.388 726.157 380.893L726.758 385.797L718.852 388.999C703.039 395.504 697.535 401.008 698.936 409.115C700.738 420.223 710.845 423.025 721.454 415.219C723.855 413.518 725.857 412.317 725.957 412.517C726.057 412.717 726.558 414.118 727.158 415.82C728.259 419.322 731.962 420.223 736.665 418.222C739.968 416.921 743.571 412.817 743.571 410.516C743.571 409.315 742.97 409.515 741.169 411.316C739.668 412.617 737.966 413.318 737.166 413.018C735.765 412.517 735.564 409.915 735.564 396.605C735.564 379.092 734.764 374.788 730.961 371.185C728.759 369.084 727.258 368.784 720.253 368.483C714.949 368.383 710.946 368.784 709.044 369.684ZM726.558 398.807V408.214L722.855 410.816C717.751 414.219 712.447 414.219 709.645 410.716C704.741 404.511 708.544 397.005 719.052 392.202C722.354 390.6 725.357 389.399 725.857 389.299C726.257 389.299 726.558 393.603 726.558 398.807Z" fill="white"/>
<path d="M847.548 370.284C843.345 372.486 838.942 377.39 837.04 381.793C835.039 386.797 834.338 395.604 835.639 401.708C839.242 419.222 859.057 426.327 870.366 414.118C872.668 411.716 876.571 403.71 876.671 401.508C876.671 399.206 875.169 400.307 873.168 404.01C872.067 406.012 869.865 408.514 868.164 409.514C864.561 411.716 857.656 411.916 853.753 409.915C847.448 406.612 842.644 398.406 842.644 391V388.298H859.658H876.671V385.796C876.671 379.992 871.967 372.486 866.463 369.684C862.46 367.582 851.952 367.982 847.548 370.284ZM861.859 375.088C863.36 376.589 864.862 379.491 865.162 381.493L865.862 385.296H854.153H842.444L842.945 382.293C844.946 372.286 855.254 368.383 861.859 375.088Z" fill="white"/>
<path d="M977.549 371.085C973.746 372.586 970.744 374.087 970.744 374.488C970.744 374.888 972.445 375.288 974.547 375.488L978.25 375.789V395.304V414.819L975.047 416.32C973.246 417.12 971.745 418.121 971.745 418.521C971.745 419.022 977.349 419.322 984.255 419.322C996.164 419.322 1000.27 418.221 993.862 416.82C988.758 415.719 988.258 414.218 987.957 399.106C987.557 384.095 988.158 381.193 992.361 377.19C994.863 374.888 994.963 374.888 997.865 376.589C999.566 377.49 1001.97 378.29 1003.27 378.29C1005.87 378.29 1008.27 375.088 1007.37 372.686C1006.97 371.685 1007.67 371.285 1009.77 371.285C1014.98 371.285 1015.78 373.787 1015.78 391.401C1015.78 409.915 1016.18 412.417 1019.78 416.32C1025.09 422.024 1031.99 421.524 1040.2 414.919L1045.5 410.515V414.218C1045.6 421.624 1045.1 421.524 1055.31 417.22C1062.81 414.018 1064.42 412.317 1058.91 413.117C1056.21 413.518 1055.91 413.217 1054.91 409.715C1054.31 407.513 1053.81 397.605 1053.81 387.498V369.284H1045.8C1041.1 369.284 1037.8 369.684 1037.8 370.284C1037.8 370.785 1038.6 371.285 1039.6 371.285C1040.6 371.285 1042.3 371.886 1043.4 372.686C1045.1 373.987 1045.3 375.588 1045.5 389.799L1045.6 405.411L1042.7 408.814C1037.1 415.219 1027.99 415.619 1025.69 409.615C1025.19 408.314 1024.79 398.606 1024.79 388.198V369.183L1015.28 369.384C1009.97 369.484 1005.37 369.284 1005.07 368.883C1004.77 368.583 1002.77 368.283 1000.77 368.283C997.064 368.283 993.762 370.785 989.258 376.789C987.957 378.691 987.857 378.391 987.757 373.487C987.757 367.282 987.357 367.182 977.549 371.085Z" fill="white"/>
<path d="M1076.33 369.284C1070.72 371.586 1067.22 379.392 1068.92 385.696C1070.12 389.9 1073.72 393.102 1082.33 397.706C1086.23 399.707 1090.34 402.509 1091.64 403.91C1094.74 407.513 1094.64 412.517 1091.24 415.219C1084.93 420.123 1075.43 415.719 1071.32 406.012C1070.52 404.01 1069.62 402.309 1069.32 402.309C1069.02 402.309 1068.82 406.012 1068.82 410.616V419.022H1072.12C1073.82 419.022 1078.33 419.422 1082.03 419.823C1087.83 420.523 1089.24 420.323 1093.24 418.422C1098.74 415.719 1101.85 411.116 1101.85 405.612C1101.85 399.207 1098.54 395.504 1088.64 390.3C1077.73 384.596 1074.82 381.994 1074.82 377.69C1074.82 373.487 1077.83 371.285 1083.43 371.285C1088.64 371.285 1092.84 374.488 1095.44 380.492L1097.34 384.796L1097.64 376.89C1097.94 368.483 1097.64 367.382 1095.54 369.084C1094.64 369.884 1093.14 369.984 1090.74 369.284C1086.73 368.083 1079.13 368.083 1076.33 369.284Z" fill="white"/>
<path d="M259.498 461.255C254.794 464.157 249.19 472.364 241.884 486.875C231.376 507.891 224.971 528.206 224.871 540.916C224.871 549.423 226.172 552.425 230.075 552.425C233.878 552.425 235.779 550.023 243.686 535.412C247.488 528.507 251.091 521.902 251.892 520.701C253.293 518.599 256.095 516.998 256.896 517.798C257.196 518.099 255.695 523.303 253.693 529.507C247.589 547.822 248.689 552.425 259.398 552.425C263.901 552.425 264.802 552.025 268.405 548.422C270.606 546.22 272.608 544.419 272.708 544.419C272.808 544.419 273.508 545.82 274.209 547.421C275.71 551.024 279.813 553.426 284.417 553.426C292.523 553.326 302.831 545.22 308.635 534.311C312.839 526.405 315.641 523.703 319.344 524.003C321.045 524.103 322.546 524.404 322.846 524.704C323.046 524.904 321.445 529.207 319.143 534.311C313.639 546.821 313.239 549.523 316.742 552.225C321.145 555.728 324.648 555.127 330.252 549.823C334.655 545.72 335.156 545.52 335.756 547.321C336.757 550.724 341.16 553.426 345.364 553.426C351.168 553.426 357.673 549.923 363.277 543.718C367.581 539.015 372.284 531.809 372.284 529.908C372.284 527.906 369.882 530.308 366.88 535.312C361.076 544.819 352.869 551.424 346.865 551.424C343.862 551.424 342.561 549.723 342.061 545.52C341.761 542.217 341.961 542.117 347.065 540.416C353.27 538.414 357.473 534.711 360.275 528.907C363.177 522.802 362.877 519.099 359.174 515.997C357.473 514.596 355.271 513.395 354.17 513.395C351.068 513.395 345.964 515.897 343.462 518.599C340.36 522.002 334.255 536.113 334.255 539.915C334.255 542.217 333.054 544.119 329.351 547.822C324.047 553.026 321.245 553.426 321.245 548.922C321.245 547.521 322.846 542.217 324.848 537.213C326.849 532.109 328.551 526.905 328.551 525.504C328.751 522.902 327.65 522.302 320.945 520.901C318.343 520.4 318.143 520 318.843 517.598C319.244 516.097 319.644 513.795 319.644 512.394C319.744 510.193 319.344 509.892 316.241 510.093C310.036 510.393 306.834 517.899 311.237 521.902C313.839 524.203 313.739 524.504 310.437 528.006C308.836 529.608 306.934 532.009 306.234 533.41C299.328 547.021 284.016 556.428 281.214 548.822C279.113 543.418 279.813 541.717 284.917 540.516C291.622 538.815 294.525 536.313 298.327 529.107C301.33 523.203 301.53 522.502 300.229 519.5C297.627 513.195 289.721 511.794 283.716 516.598C280.814 518.899 273.208 533.511 273.208 536.813C273.208 539.615 268.705 546.821 265.803 548.822C264.401 549.723 262.4 550.424 261.199 550.424C258.397 550.424 258.497 546.22 261.699 532.21C263.1 526.105 264.201 519.9 264.201 518.299C264.201 515.297 261.9 513.395 258.397 513.395C255.294 513.395 247.288 523.103 240.683 534.711C237.481 540.616 234.579 545.22 234.378 545.019C233.978 544.519 236.48 534.711 239.783 523.603C241.884 516.598 243.485 513.695 250.191 504.989C260.699 491.178 263.601 486.274 266.603 477.167C269.806 467.76 270.006 461.856 267.304 460.354C264.502 458.953 263.1 459.053 259.498 461.255ZM266.203 466.059C266.103 470.862 263 482.071 260.098 487.275C256.495 494.18 245.987 507.29 245.487 505.689C244.386 502.387 257.696 471.663 262.4 466.659C265.002 463.957 266.203 463.757 266.203 466.059ZM318.443 512.895C318.243 513.895 317.642 515.797 317.142 517.198C316.341 519.3 315.941 519.5 315.24 518.399C313.939 516.297 314.04 512.995 315.441 511.594C317.142 509.892 318.843 510.693 318.443 512.895ZM293.224 521.601C293.224 528.707 286.719 538.414 282.015 538.414C280.514 538.414 280.314 537.914 280.814 535.612C282.315 529.608 289.721 518.399 292.323 518.399C292.823 518.399 293.224 519.9 293.224 521.601ZM354.471 523.103C353.97 529.708 348.266 538.414 344.263 538.414C341.661 538.414 341.761 536.113 344.663 529.908C346.965 524.804 352.969 517.798 354.07 518.899C354.37 519.2 354.571 521.101 354.471 523.103Z" fill="white"/>
<path d="M581.446 462.056C578.543 463.157 574.24 467.961 570.938 473.865C567.335 480.27 559.629 499.485 556.927 508.792C556.026 511.894 555.125 514.396 554.925 514.396C554.725 514.396 553.324 513.896 551.923 513.396C547.82 511.894 541.915 513.896 536.811 518.6C533.309 521.902 532.008 524.004 530.306 529.508C528.305 536.213 523.901 543.919 520.699 546.521C519.298 547.822 519.198 547.522 519.798 544.419C521.199 536.613 521.7 522.703 520.499 520.601C517.396 514.797 511.892 519.5 501.985 536.413C498.882 541.617 496.38 545.22 496.38 544.419C496.38 543.619 497.982 537.914 499.883 531.91C501.785 525.805 503.386 520.301 503.386 519.6C503.386 517.399 498.582 518.299 496.48 521.001C495.28 522.503 494.379 524.204 494.379 524.804C494.379 526.406 483.571 545.52 481.069 548.122C479.968 549.423 478.667 550.424 478.166 550.424C477.066 550.424 477.666 547.822 482.47 531.81C484.571 524.704 486.373 518.199 486.373 517.599C486.373 515.197 481.569 516.398 479.067 519.4C473.763 525.705 469.26 542.018 471.161 548.222C472.762 553.326 471.261 554.527 466.858 551.925C463.155 549.723 431.33 520.701 431.33 519.6C431.431 518.199 464.156 484.874 464.856 485.574C465.256 485.874 463.655 489.477 461.253 493.58C454.148 505.89 455.049 505.59 463.255 492.98C468.959 484.273 469.46 482.372 466.057 482.372C462.554 482.372 460.052 484.473 443.64 500.786C435.233 509.092 428.328 515.397 428.328 514.797C428.328 514.196 429.729 509.793 431.33 504.789C435.434 492.98 436.234 485.074 433.832 482.372C431.731 480.07 427.327 479.77 423.524 481.771C419.421 483.873 411.415 492.88 409.213 497.884C406.511 503.888 406.211 509.693 408.613 510.193C409.914 510.493 410.314 509.893 410.314 507.691C410.314 503.188 415.218 494.381 420.922 488.576C423.825 485.774 426.627 483.372 427.227 483.372C429.629 483.372 428.028 490.978 422.924 505.089C412.816 532.71 407.412 551.925 409.013 553.526C412.316 556.829 417.42 548.823 422.324 532.61C423.524 528.607 424.725 525.405 425.026 525.405C425.226 525.405 427.728 527.807 430.43 530.809C436.534 537.514 452.447 550.424 457.851 553.226C464.056 556.328 468.659 556.929 472.462 555.027C474.263 554.127 476.365 553.426 477.366 553.426C478.967 553.426 483.771 548.923 486.673 544.419L488.374 542.018V546.621C488.374 550.224 488.775 551.625 490.276 552.425C493.178 553.927 494.579 552.926 497.781 547.121C499.283 544.319 503.286 537.514 506.588 532.11C515.095 518.299 516.196 519 511.792 535.813C510.391 541.217 509.39 547.121 509.591 548.823C509.891 551.525 510.291 551.925 513.193 552.225C517.396 552.626 521.6 549.623 525.102 543.719L527.704 539.115L529.005 544.019C529.706 546.921 531.307 549.723 532.908 551.125C537.812 555.428 542.816 553.526 546.919 545.62C549.121 541.317 549.321 541.117 549.421 543.719C549.421 545.22 550.122 547.822 550.922 549.423C554.025 555.428 561.931 552.125 569.136 541.917L571.238 538.915L570.537 542.918C569.637 548.422 570.237 551.225 572.539 552.526C575.241 553.927 576.542 552.726 581.045 544.62C586.85 534.212 594.556 522.402 595.556 522.402C596.757 522.402 595.957 527.106 592.854 539.115C590.953 546.221 590.553 548.823 591.453 550.424C593.655 554.527 601.661 552.025 605.464 545.921C607.866 541.917 609.467 541.417 609.467 544.519C609.467 545.72 610.968 548.122 612.87 550.024C615.572 552.726 617.073 553.426 620.075 553.426C625.78 553.326 632.385 550.024 637.489 544.519C642.893 538.715 648.297 529.408 646.195 529.408C645.495 529.408 643.794 531.309 642.493 533.611C636.688 544.119 628.081 551.425 621.576 551.425C619.075 551.425 618.174 550.824 617.473 548.823C615.572 543.819 616.172 541.617 619.775 540.917C627.781 539.215 632.885 534.512 636.388 525.605C640.191 516.398 628.482 509.893 620.075 516.498C617.273 518.7 612.67 527.106 610.468 533.911C609.767 536.113 607.566 540.116 605.564 542.918C601.461 548.523 600.66 547.622 602.362 539.315C604.063 531.71 603.763 521.902 601.861 520.001C597.958 516.098 593.555 519.901 584.448 535.513C581.446 540.516 578.844 544.119 578.644 543.519C578.443 543.018 579.945 537.514 581.846 531.509C583.847 525.405 585.449 520.001 585.449 519.4C585.449 518.199 581.446 518.099 579.844 519.2C579.244 519.6 576.442 524.504 573.54 530.108C568.436 540.116 561.731 548.022 559.129 547.121C556.727 546.421 557.327 538.915 560.93 524.604C564.933 508.292 564.833 508.692 574.14 497.183C581.546 487.976 585.849 479.57 587.65 470.963C588.851 465.359 588.851 465.058 586.55 463.257C584.148 461.256 583.847 461.155 581.446 462.056ZM584.948 469.962C584.948 474.666 584.248 477.268 581.646 482.372C578.443 488.877 568.636 501.987 567.735 501.086C567.135 500.386 572.038 484.373 575.141 476.868C578.043 469.862 582.547 463.257 583.948 463.757C584.548 463.858 584.948 466.76 584.948 469.962ZM553.424 518.199C553.424 518.6 552.423 523.303 551.323 528.607C549.621 536.213 548.32 539.315 545.518 543.118C541.215 548.823 537.812 549.924 536.811 545.921C534.61 537.214 540.614 519.5 546.619 516.998C549.721 515.597 553.424 516.298 553.424 518.199ZM629.483 521.602C629.483 528.707 622.978 538.415 618.274 538.415C616.773 538.415 616.573 537.914 617.073 535.613C618.574 529.608 625.98 518.399 628.582 518.399C629.082 518.399 629.483 519.901 629.483 521.602Z" fill="white"/>
<path d="M760.082 486.274C758.681 487.775 753.777 490.978 749.073 493.279C743.369 496.082 739.466 498.884 736.664 501.986C731.76 507.59 728.858 515.697 730.259 519.9C731.66 524.303 733.061 523.903 734.462 518.499C735.763 513.295 740.066 505.789 742.268 504.988C744.27 504.188 744.069 518.999 741.968 522.902C741.167 524.503 740.667 526.705 740.967 527.606C741.167 528.607 740.667 533.41 739.866 538.314C738.966 543.218 738.565 547.921 738.865 548.822C739.566 550.423 743.269 551.024 745.17 549.623C745.671 549.222 747.772 543.918 749.674 537.914C752.976 527.306 753.276 526.805 756.979 525.004C762.484 522.302 774.693 521.601 778.096 523.803C781.298 525.904 781.398 530.808 778.296 535.512C775.193 540.215 761.483 549.022 753.777 551.424C745.871 553.926 737.564 554.126 737.564 551.924C737.564 549.823 730.759 549.823 729.859 552.025C728.858 554.627 732.06 556.728 738.265 557.529C752.476 559.53 769.589 553.426 779.397 543.018L784.601 537.513V542.117C784.601 545.92 785.101 547.121 788.003 550.023C790.705 552.725 792.206 553.426 795.309 553.426C800.713 553.426 808.819 549.122 813.423 543.818L817.326 539.515L816.825 544.419C816.425 548.822 816.625 549.623 819.427 552.425C824.031 556.928 827.033 556.528 832.938 550.323C835.64 547.521 837.641 546.02 837.341 547.121C837.041 548.122 836.54 549.823 836.24 550.924C835.84 552.025 831.537 556.928 826.533 561.932C817.226 571.239 811.621 580.046 811.621 585.55C811.621 589.553 816.025 592.856 820.428 592.055C828.834 590.754 833.938 583.148 839.142 564.434L842.345 552.925L847.749 549.122L853.153 545.319L854.154 548.422C856.756 556.128 862.761 554.627 869.966 544.419L871.767 541.917L871.167 544.619C870.166 549.923 874.069 555.027 877.272 552.325C877.972 551.724 880.474 547.921 882.676 543.818C890.882 528.807 897.687 519.5 897.687 523.202C897.687 523.603 896.286 529.507 894.685 536.212C891.383 549.723 891.683 552.425 896.286 552.425C901.19 552.425 904.493 549.623 910.197 540.316C916.302 530.408 917.703 527.706 916.001 528.707C915.401 529.107 913.299 532.209 911.298 535.712C909.296 539.115 906.494 543.218 905.093 544.919L902.491 547.921L903.091 543.418C904.893 530.308 904.993 523.503 903.292 520.901C902.391 519.5 900.79 518.399 899.789 518.399C897.187 518.399 892.183 524.503 885.678 535.412C882.776 540.316 879.974 544.419 879.573 544.419C879.173 544.419 880.274 540.015 882.175 534.511C883.977 529.107 885.778 523.202 886.179 521.501C886.779 518.699 886.579 518.399 884.477 518.399C880.975 518.399 880.374 519.199 875.17 529.407C867.664 544.419 860.659 553.926 860.659 549.122C860.659 548.322 862.66 541.016 865.162 532.81C867.965 523.603 869.366 517.698 868.765 517.098C868.265 516.597 866.664 516.397 865.363 516.797C862.16 517.598 858.357 524.003 855.555 533.51C853.654 540.015 852.853 541.316 848.95 544.219C846.448 546.12 844.246 547.421 843.946 547.121C843.746 546.821 845.047 540.616 847.048 533.41C849.05 526.205 850.451 519.8 850.151 519.299C849.35 517.998 846.248 518.199 844.847 519.6C843.946 520.5 843.546 520.3 843.045 518.799C841.844 515.396 839.443 513.395 836.44 513.395C832.437 513.395 827.133 518.599 820.628 529.107C813.022 541.416 809.92 545.319 804.716 548.622C800.413 551.324 794.308 552.425 793.207 550.623C792.907 550.123 792.407 547.921 792.006 545.72L791.406 541.617L795.509 540.916C801.313 539.915 806.918 535.512 810.02 529.307C813.223 522.802 813.323 520.3 810.22 516.697C808.219 514.396 807.018 513.895 803.315 513.895C797.21 513.895 793.908 516.497 789.504 524.804C785.902 531.609 785.902 531.609 785.301 528.506C784.5 524.603 779.597 521.401 774.393 521.401C772.291 521.401 770.59 520.901 770.59 520.4C770.59 519.8 770.99 519.399 771.49 519.399C771.891 519.399 774.393 517.498 776.995 515.296C785.801 507.59 788.203 498.283 782.899 492.379C780.698 489.977 778.796 489.076 773.892 488.276C769.289 487.475 767.688 486.774 767.287 485.273C766.587 482.471 762.984 482.972 760.082 486.274ZM774.092 491.778C780.998 494.681 780.998 500.485 774.092 508.091C770.29 512.394 762.083 518.199 757.38 519.9C756.079 520.4 756.779 517.598 760.582 506.59C763.184 498.884 765.686 492.079 765.986 491.478C766.987 489.977 769.989 490.077 774.092 491.778ZM751.275 504.288C749.474 508.691 747.772 511.994 747.372 511.593C747.072 511.193 746.471 508.791 746.071 506.289C745.37 501.686 745.471 501.586 749.173 498.984C751.275 497.583 753.377 496.382 753.677 496.382C754.077 496.382 752.976 499.985 751.275 504.288ZM803.515 527.105C802.114 532.309 796.81 538.414 793.808 538.414C791.906 538.414 791.806 538.114 792.807 534.611C794.208 529.507 798.111 523.002 801.313 520.4L804.116 518.199L804.416 520.4C804.616 521.701 804.216 524.704 803.515 527.105ZM840.443 519.6C843.946 523.102 839.843 534.711 831.036 546.821C828.034 550.824 827.233 551.424 826.533 550.123C824.231 546.22 831.537 523.002 836.04 519.8C838.542 518.098 838.942 518.098 840.443 519.6ZM833.238 564.634C829.835 578.445 823.53 588.853 818.727 588.252C816.625 588.052 816.025 587.352 815.825 584.75C815.624 582.948 816.425 579.846 817.626 577.544C819.627 573.441 832.137 559.43 833.638 559.43C834.139 559.43 833.838 561.832 833.238 564.634Z" fill="white"/>
<path d="M214.762 486.875C210.859 488.276 204.655 493.38 206.856 493.38C207.457 493.38 209.959 492.279 212.261 490.878C224.47 483.872 226.071 492.779 216.264 512.895C208.458 528.607 192.445 551.424 189.043 551.424C187.842 551.424 186.841 541.016 187.642 536.212C188.042 533.911 188.943 529.707 189.643 527.105C191.044 522.402 191.044 522.302 188.542 521.401C185.24 520.1 181.137 521.201 181.137 523.303C181.137 525.604 168.727 543.618 162.923 549.723L158.019 554.927L158.519 546.42C158.82 541.717 160.02 534.711 161.121 530.908C164.024 521.401 171.429 506.59 175.532 501.786L178.835 497.883L179.535 501.186C180.336 504.688 181.537 505.289 182.538 502.787C185.44 495.281 178.635 491.478 172.13 496.982C161.422 506.089 148.311 535.812 149.512 548.322C150.113 554.827 152.214 557.429 156.818 557.429C161.922 557.429 163.323 556.328 170.228 546.22L176.633 536.913L177.234 542.417C178.635 555.527 185.44 560.331 195.748 555.427C206.656 550.123 229.174 510.693 229.174 496.782C229.174 488.376 222.769 483.972 214.762 486.875Z" fill="white"/>
<path d="M920.705 498.883C920.705 499.183 922.507 500.985 924.708 502.986C927.611 505.588 928.711 507.39 928.711 509.491C928.711 512.093 928.411 512.293 924.508 512.594C920.805 512.894 920.105 513.294 919.204 515.796C918.404 518.198 918.604 518.898 920.605 520.5C923.908 523.202 926.41 522.901 929.812 519.499C933.215 516.096 933.615 512.093 931.113 506.689C929.212 502.786 920.705 496.381 920.705 498.883Z" fill="white"/>
<path d="M484.07 508.09C482.369 511.493 482.869 513.395 485.371 513.395C487.473 513.395 490.375 509.792 490.375 507.19C490.375 504.187 485.671 504.888 484.07 508.09Z" fill="white"/>
<path d="M867.066 507.89C865.164 510.893 865.865 513.395 868.567 513.395C870.768 513.395 874.171 508.09 873.17 506.389C872.069 504.588 868.767 505.388 867.066 507.89Z" fill="white"/>
<path d="M945.024 512.194C939.82 512.994 938.019 522.501 941.622 529.307L943.423 532.709L938.019 537.813C931.914 543.818 931.414 546.12 935.817 549.822C940.12 553.425 945.625 553.425 949.828 549.622C953.23 546.62 953.631 544.318 952.33 536.412L951.629 531.909L955.832 530.207C958.134 529.207 959.836 528.106 959.535 527.806C959.135 527.505 957.834 527.906 956.533 528.706C951.529 531.909 950.428 531.709 947.426 527.005C944.424 522.201 944.023 519.699 946.125 516.897C947.226 515.296 947.726 515.196 949.027 516.297C949.928 516.997 950.929 518.899 951.229 520.5C951.629 522.101 952.23 523.402 952.73 523.402C953.631 523.402 956.733 518.899 956.733 517.598C956.733 514.395 950.328 511.393 945.024 512.194ZM946.525 539.314C948.227 544.819 948.026 546.22 945.224 548.021C940.921 550.823 935.717 547.12 937.318 542.217C938.019 539.715 942.522 535.411 944.224 535.411C944.824 535.411 945.925 537.113 946.525 539.314Z" fill="white"/>
<path d="M651.901 514.196C648.198 516.698 647.497 524.504 650.499 530.308L652.401 534.111L648.398 537.413C646.196 539.115 643.594 542.217 642.693 544.119L640.992 547.621L644.295 550.524C646.596 552.525 648.598 553.426 651.1 553.426C659.306 553.426 663.61 547.922 661.608 540.015C660.007 533.711 660.007 533.811 665.111 531.409C667.613 530.208 669.414 529.007 669.114 528.707C668.914 528.507 666.912 529.207 664.61 530.308C662.409 531.509 660.207 532.41 659.807 532.41C658.406 532.41 653.502 524.203 653.502 521.902C653.502 520.701 654.102 518.899 654.903 517.899C656.004 516.297 656.504 516.197 657.805 517.298C658.706 517.999 659.707 519.9 660.007 521.501C660.807 525.004 661.808 525.204 663.91 522.202C666.011 519.2 665.911 517.798 663.509 515.397C661.508 513.395 654.202 512.594 651.901 514.196ZM655.303 539.715C657.705 546.42 656.104 550.423 651.1 550.423C648.998 550.423 645.496 546.921 645.496 544.819C645.496 543.118 651.7 536.413 653.202 536.413C653.702 536.413 654.603 537.914 655.303 539.715Z" fill="white"/>
<path d="M672.214 515.096C669.312 518.499 669.012 524.103 671.614 529.608C673.916 534.511 673.916 534.611 672.014 535.712C667.911 537.914 663.508 543.518 663.508 546.42C663.508 550.524 667.611 553.426 673.215 553.426C676.818 553.426 678.219 552.825 680.721 550.323C683.523 547.621 683.723 546.921 683.223 542.617C682.823 540.015 682.322 536.913 681.922 535.712C681.422 533.911 682.022 533.31 686.125 531.509C688.727 530.308 690.629 529.207 690.328 528.907C690.128 528.707 687.927 529.407 685.525 530.608L681.221 532.81L678.82 529.808C675.417 525.705 674.516 523.002 675.417 519.7C676.618 515.297 679.02 515.697 680.921 520.501C682.522 524.504 682.622 524.604 684.524 522.902C687.126 520.501 687.026 516.898 684.324 514.996C681.221 512.795 674.216 512.895 672.214 515.096ZM676.318 539.115C678.619 545.119 678.619 546.32 676.618 548.322C672.715 552.225 667.511 550.023 667.511 544.419C667.511 542.517 668.512 540.816 670.613 539.015C674.416 535.712 675.017 535.812 676.318 539.115Z" fill="white"/>
<path d="M956.133 545.819C955.233 548.021 956.033 550.623 957.935 551.724C960.236 553.225 962.738 550.923 962.738 547.32C962.738 544.718 962.338 544.418 959.736 544.418C958.035 544.418 956.434 545.018 956.133 545.819Z" fill="white"/>
<path d="M969.044 546.02C968.243 548.122 970.345 552.425 972.246 552.425C974.248 552.425 976.95 548.122 976.149 546.02C975.349 543.918 969.945 543.818 969.044 546.02Z" fill="white"/>
<path d="M982.252 546.42C981.552 548.722 983.253 552.425 985.255 552.425C986.756 552.425 989.758 549.823 989.758 548.422C989.758 544.219 983.453 542.517 982.252 546.42Z" fill="white"/>
</g>
<defs>
<clipPath id="clip0_562_1284">
<rect width="1137.87" height="592.455" fill="white"/>
</clipPath>
</defs>
</svg>
