<svg width="51" height="50" viewBox="0 0 51 50" fill="none" xmlns="http://www.w3.org/2000/svg">
<circle cx="25.5" cy="24.9922" r="25" fill="white"/>
<circle cx="25.5" cy="24.9922" r="23" stroke="#264B91" stroke-opacity="0.15" stroke-width="4"/>
<g clip-path="url(#clip0_1027_2469)">
<path d="M30.3379 9.18359H22.8379V20.1008H14.0879V29.4758H22.8379V40.3929H30.3379V29.4758H39.0879V20.1008H30.3379V9.18359Z" fill="#264B91"/>
</g>
<mask id="path-4-inside-1_1027_2469" fill="white">
<path fill-rule="evenodd" clip-rule="evenodd" d="M34.5286 1.67974C30.6621 0.182148 26.4933 -0.326697 22.3981 0.185272C21.3711 0.313659 20.7152 1.30956 20.9201 2.32401C21.1249 3.3377 22.112 3.98524 23.1399 3.87169C23.9146 3.78612 24.7018 3.7422 25.4992 3.7422C37.2353 3.7422 46.7492 13.2561 46.7492 24.9922C46.7492 36.7282 37.2353 46.2422 25.4992 46.2422C17.069 46.2422 9.78529 41.3331 6.35087 34.2176C5.90144 33.2865 4.82863 32.7935 3.86133 33.1586C2.8939 33.5237 2.39924 34.6077 2.83571 35.5451C4.57802 39.2869 7.2245 42.5487 10.5482 45.0287C14.3733 47.883 18.9355 49.5827 23.6957 49.927C28.4559 50.2713 33.2153 49.2458 37.4113 46.9717C41.6073 44.6977 45.0648 41.27 47.375 37.0938C49.6853 32.9175 50.7519 28.1672 50.4487 23.4042C50.1456 18.6412 48.4854 14.0645 45.6643 10.2148C42.8432 6.36519 38.9791 3.40351 34.5286 1.67974Z"/>
</mask>
<path fill-rule="evenodd" clip-rule="evenodd" d="M34.5286 1.67974C30.6621 0.182148 26.4933 -0.326697 22.3981 0.185272C21.3711 0.313659 20.7152 1.30956 20.9201 2.32401C21.1249 3.3377 22.112 3.98524 23.1399 3.87169C23.9146 3.78612 24.7018 3.7422 25.4992 3.7422C37.2353 3.7422 46.7492 13.2561 46.7492 24.9922C46.7492 36.7282 37.2353 46.2422 25.4992 46.2422C17.069 46.2422 9.78529 41.3331 6.35087 34.2176C5.90144 33.2865 4.82863 32.7935 3.86133 33.1586C2.8939 33.5237 2.39924 34.6077 2.83571 35.5451C4.57802 39.2869 7.2245 42.5487 10.5482 45.0287C14.3733 47.883 18.9355 49.5827 23.6957 49.927C28.4559 50.2713 33.2153 49.2458 37.4113 46.9717C41.6073 44.6977 45.0648 41.27 47.375 37.0938C49.6853 32.9175 50.7519 28.1672 50.4487 23.4042C50.1456 18.6412 48.4854 14.0645 45.6643 10.2148C42.8432 6.36519 38.9791 3.40351 34.5286 1.67974Z" fill="white"/>
<path d="M34.5286 1.67974L37.7792 -6.71274V-6.71274L34.5286 1.67974ZM23.6957 49.927L24.345 40.9505L23.6957 49.927ZM50.4487 23.4042L59.4306 22.8326L50.4487 23.4042ZM45.6643 10.2148L38.4049 15.5347L45.6643 10.2148ZM6.35087 34.2176L-1.75438 38.1298L6.35087 34.2176ZM2.83571 35.5451L-5.32319 39.3441L2.83571 35.5451ZM22.3981 0.185272L21.2816 -8.74521L22.3981 0.185272ZM23.5146 9.11575C26.1354 8.7881 28.8035 9.11378 31.278 10.0722L37.7792 -6.71274C32.5206 -8.74949 26.8511 -9.44149 21.2816 -8.74521L23.5146 9.11575ZM24.128 12.8173C24.5752 12.7679 25.0325 12.7422 25.4992 12.7422V-5.2578C24.371 -5.2578 23.2539 -5.19564 22.1518 -5.0739L24.128 12.8173ZM25.4992 12.7422C32.2647 12.7422 37.7492 18.2267 37.7492 24.9922H55.7492C55.7492 8.28557 42.2058 -5.2578 25.4992 -5.2578V12.7422ZM37.7492 24.9922C37.7492 31.7577 32.2647 37.2422 25.4992 37.2422V55.2422C42.2058 55.2422 55.7492 41.6988 55.7492 24.9922H37.7492ZM25.4992 37.2422C20.6529 37.2422 16.4462 34.4286 14.4561 30.3054L-1.75438 38.1298C3.12437 48.2376 13.4851 55.2422 25.4992 55.2422V37.2422ZM15.9306 37.8156C13.8035 36.2283 12.1097 34.1408 10.9946 31.7461L-5.32319 39.3441C-2.95364 44.433 0.645537 48.869 5.16578 52.2419L15.9306 37.8156ZM24.345 40.9505C21.2984 40.7301 18.3786 39.6423 15.9306 37.8156L5.16578 52.2419C10.3679 56.1237 16.5725 58.4353 23.0464 58.9036L24.345 40.9505ZM33.123 39.0591C30.4375 40.5145 27.3915 41.1708 24.345 40.9505L23.0464 58.9036C29.5204 59.3718 35.993 57.9772 41.6996 54.8844L33.123 39.0591ZM39.4997 32.7372C38.0212 35.41 35.8084 37.6037 33.123 39.0591L41.6996 54.8844C47.4063 51.7916 52.1084 47.13 55.2503 41.4503L39.4997 32.7372ZM41.4669 23.9759C41.6609 27.0242 40.9783 30.0644 39.4997 32.7372L55.2503 41.4503C58.3923 35.7706 59.8428 29.3103 59.4306 22.8326L41.4669 23.9759ZM38.4049 15.5347C40.2104 17.9984 41.2729 20.9275 41.4669 23.9759L59.4306 22.8326C59.0183 16.3548 56.7604 10.1305 52.9237 4.89498L38.4049 15.5347ZM31.278 10.0722C34.1264 11.1754 36.5994 13.0709 38.4049 15.5347L52.9237 4.89498C49.087 -0.340532 43.8319 -4.36841 37.7792 -6.71274L31.278 10.0722ZM14.4561 30.3054C12.2015 25.6344 6.47166 22.5538 0.683406 24.7383L7.03924 41.5789C3.18561 43.0333 -0.398643 40.9386 -1.75438 38.1298L14.4561 30.3054ZM0.683406 24.7383C-4.75137 26.7895 -8.15973 33.2522 -5.32319 39.3441L10.9946 31.7461C12.9582 35.9632 10.5392 40.258 7.03924 41.5789L0.683406 24.7383ZM12.0983 4.10609C13.3221 10.1645 18.9694 13.3871 24.128 12.8173L22.1518 -5.0739C25.2546 -5.41664 28.9276 -3.48905 29.7419 0.541936L12.0983 4.10609ZM21.2816 -8.74521C14.6121 -7.9114 10.9479 -1.58856 12.0983 4.10609L29.7419 0.541936C30.4824 4.20769 28.1302 8.53871 23.5146 9.11575L21.2816 -8.74521Z" fill="#264B91" mask="url(#path-4-inside-1_1027_2469)"/>
<defs>
<clipPath id="clip0_1027_2469">
<rect width="25" height="25" fill="white" transform="translate(14.0879 12.4922)"/>
</clipPath>
</defs>
</svg>
