<svg width="51" height="50" viewBox="0 0 51 50" fill="none" xmlns="http://www.w3.org/2000/svg">
<circle cx="25.5" cy="24.9922" r="25" fill="white"/>
<circle cx="25.5" cy="24.9922" r="23" stroke="#264B91" stroke-opacity="0.15" stroke-width="4"/>
<g clip-path="url(#clip0_1027_2496)">
<path d="M11.7324 36.3527V32.8367C11.7324 32.1461 11.9103 31.4973 12.2661 30.8904C12.6219 30.2835 13.1137 29.823 13.7416 29.5091C14.8089 28.965 16.0123 28.5045 17.3517 28.1278C18.6911 27.7511 20.1666 27.5628 21.7781 27.5628C23.3896 27.5628 24.865 27.7511 26.2044 28.1278C27.5439 28.5045 28.7472 28.965 29.8146 29.5091C30.4424 29.823 30.9343 30.2835 31.29 30.8904C31.6458 31.4973 31.8237 32.1461 31.8237 32.8367V36.3527H11.7324ZM21.7781 26.3071C20.3968 26.3071 19.2143 25.8152 18.2307 24.8316C17.2471 23.848 16.7552 22.6655 16.7552 21.2842H16.4413C16.253 21.2842 16.1014 21.2269 15.9868 21.1122C15.8721 20.9975 15.8143 20.8456 15.8135 20.6564C15.8135 20.468 15.8712 20.3161 15.9868 20.2006C16.1023 20.085 16.2538 20.0277 16.4413 20.0285H16.7552C16.7552 19.0868 16.9855 18.2391 17.4459 17.4857C17.9063 16.7323 18.5132 16.1358 19.2667 15.6963V16.8893C19.2667 17.0776 19.3244 17.2296 19.4399 17.3451C19.5555 17.4606 19.707 17.518 19.8945 17.5171C20.0829 17.5171 20.2348 17.4598 20.3503 17.3451C20.4659 17.2304 20.5232 17.0785 20.5224 16.8893V15.1941C20.7107 15.1313 20.9095 15.0844 21.1188 15.0534C21.3281 15.0224 21.5479 15.0065 21.7781 15.0057C22.0083 15.0057 22.228 15.0216 22.4373 15.0534C22.6466 15.0852 22.8454 15.1321 23.0338 15.1941V16.8893C23.0338 17.0776 23.0915 17.2296 23.2071 17.3451C23.3226 17.4606 23.4741 17.518 23.6616 17.5171C23.85 17.5171 24.0019 17.4598 24.1175 17.3451C24.233 17.2304 24.2903 17.0785 24.2895 16.8893V15.6963C25.0429 16.1358 25.6498 16.7323 26.1103 17.4857C26.5707 18.2391 26.8009 19.0868 26.8009 20.0285H27.1148C27.3032 20.0285 27.4551 20.0863 27.5706 20.2018C27.6862 20.3173 27.7435 20.4689 27.7427 20.6564C27.7427 20.8447 27.6853 20.9967 27.5706 21.1122C27.456 21.2277 27.304 21.2851 27.1148 21.2842H26.8009C26.8009 22.6655 26.3091 23.848 25.3254 24.8316C24.3418 25.8152 23.1593 26.3071 21.7781 26.3071ZM21.7781 23.7956C22.4687 23.7956 23.0601 23.5499 23.5524 23.0585C24.0446 22.5672 24.2903 21.9757 24.2895 21.2842H19.2667C19.2667 21.9749 19.5128 22.5663 20.005 23.0585C20.4973 23.5508 21.0883 23.7965 21.7781 23.7956ZM31.1959 28.8185L31.0075 27.8767C30.8819 27.8348 30.7618 27.788 30.6471 27.7361C30.5324 27.6842 30.4224 27.6055 30.3169 27.5L29.4379 27.8139L28.81 26.6838L29.5007 26.0559V25.3025L28.81 24.6746L29.4379 23.5445L30.3169 23.8584C30.4006 23.7747 30.5052 23.7015 30.6308 23.6387C30.7564 23.5759 30.8819 23.5236 31.0075 23.4817L31.1959 22.5399H32.4516L32.6399 23.4817C32.7655 23.5236 32.8911 23.5759 33.0166 23.6387C33.1422 23.7015 33.2469 23.7747 33.3306 23.8584L34.2096 23.5445L34.8374 24.6746L34.1468 25.3025V26.0559L34.8374 26.6838L34.2096 27.8139L33.3306 27.5C33.2259 27.6046 33.1163 27.6833 33.0016 27.7361C32.8869 27.7888 32.7663 27.8357 32.6399 27.8767L32.4516 28.8185H31.1959ZM31.8237 26.621C32.0749 26.621 32.2946 26.5268 32.483 26.3385C32.6713 26.1501 32.7655 25.9304 32.7655 25.6792C32.7655 25.4281 32.6713 25.2083 32.483 25.02C32.2946 24.8316 32.0749 24.7374 31.8237 24.7374C31.5726 24.7374 31.3528 24.8316 31.1645 25.02C30.9761 25.2083 30.8819 25.4281 30.8819 25.6792C30.8819 25.9304 30.9761 26.1501 31.1645 26.3385C31.3528 26.5268 31.5726 26.621 31.8237 26.621ZM34.084 22.5399L33.8329 21.2215C33.6445 21.1587 33.472 21.0804 33.3155 20.9866C33.159 20.8929 33.0175 20.7828 32.8911 20.6564L31.5726 21.0959L30.6936 19.589L31.7609 18.6473C31.7191 18.5426 31.6982 18.4589 31.6982 18.3961V17.8938C31.6982 17.831 31.7191 17.7473 31.7609 17.6427L30.6936 16.7009L31.5726 15.1941L32.8911 15.6336C33.0166 15.508 33.1581 15.3979 33.3155 15.3033C33.4729 15.2087 33.6453 15.1304 33.8329 15.0685L34.084 13.75H35.842L36.0931 15.0685C36.2815 15.1313 36.4544 15.21 36.6117 15.3046C36.7691 15.3992 36.9102 15.5088 37.0349 15.6336L38.3534 15.1941L39.2324 16.7009L38.165 17.6427C38.2069 17.7473 38.2278 17.831 38.2278 17.8938V18.3961C38.2278 18.4589 38.2069 18.5426 38.165 18.6473L39.2324 19.589L38.3534 21.0959L37.0349 20.6564C36.9093 20.782 36.7683 20.892 36.6117 20.9866C36.4552 21.0812 36.2823 21.1595 36.0931 21.2215L35.842 22.5399H34.084ZM34.963 19.7146C35.4025 19.7146 35.7742 19.5627 36.0781 19.2588C36.3819 18.9549 36.5335 18.5836 36.5326 18.145C36.5326 17.7055 36.3807 17.3338 36.0768 17.0299C35.7729 16.726 35.4016 16.5745 34.963 16.5753C34.5235 16.5753 34.1518 16.7273 33.8479 17.0312C33.544 17.335 33.3925 17.7063 33.3934 18.145C33.3934 18.5845 33.5453 18.9562 33.8492 19.26C34.1531 19.5639 34.5243 19.7154 34.963 19.7146Z" fill="#264B91"/>
</g>
<mask id="path-4-inside-1_1027_2496" fill="white">
<path fill-rule="evenodd" clip-rule="evenodd" d="M37.8516 3.25656C33.1521 0.586046 27.7294 -0.481215 22.3989 0.185292C21.372 0.313692 20.7159 1.30958 20.9209 2.32399C21.1256 3.33764 22.1127 3.98515 23.1406 3.87161C23.9152 3.78604 24.7024 3.74211 25.4999 3.74211C37.2359 3.74211 46.7499 13.2561 46.7499 24.9921C46.7499 36.7281 37.2359 46.2421 25.4999 46.2421C13.7639 46.2421 4.24993 36.7281 4.24993 24.9921C4.24993 19.5573 6.29019 14.599 9.64657 10.8414C10.3363 10.0692 10.3807 8.88785 9.67197 8.13297C8.96316 7.37799 7.77057 7.3361 7.07081 8.09947C3.44106 12.0592 1.17126 17.0978 0.627084 22.4752C0.019776 28.4764 1.60271 34.4949 5.08399 39.4208C8.56528 44.3467 13.7102 47.8479 19.5699 49.2787C25.4297 50.7095 31.6092 49.9734 36.9689 47.2063C42.3286 44.4391 46.5072 39.8274 48.734 34.2216C50.9608 28.6158 51.0858 22.3939 49.0858 16.7031C47.0859 11.0124 43.0959 6.2367 37.8516 3.25656Z"/>
</mask>
<path fill-rule="evenodd" clip-rule="evenodd" d="M37.8516 3.25656C33.1521 0.586046 27.7294 -0.481215 22.3989 0.185292C21.372 0.313692 20.7159 1.30958 20.9209 2.32399C21.1256 3.33764 22.1127 3.98515 23.1406 3.87161C23.9152 3.78604 24.7024 3.74211 25.4999 3.74211C37.2359 3.74211 46.7499 13.2561 46.7499 24.9921C46.7499 36.7281 37.2359 46.2421 25.4999 46.2421C13.7639 46.2421 4.24993 36.7281 4.24993 24.9921C4.24993 19.5573 6.29019 14.599 9.64657 10.8414C10.3363 10.0692 10.3807 8.88785 9.67197 8.13297C8.96316 7.37799 7.77057 7.3361 7.07081 8.09947C3.44106 12.0592 1.17126 17.0978 0.627084 22.4752C0.019776 28.4764 1.60271 34.4949 5.08399 39.4208C8.56528 44.3467 13.7102 47.8479 19.5699 49.2787C25.4297 50.7095 31.6092 49.9734 36.9689 47.2063C42.3286 44.4391 46.5072 39.8274 48.734 34.2216C50.9608 28.6158 51.0858 22.3939 49.0858 16.7031C47.0859 11.0124 43.0959 6.2367 37.8516 3.25656Z" fill="#C4C4C4"/>
<path d="M37.8516 3.25656L42.2981 -4.56828L42.2981 -4.56828L37.8516 3.25656ZM0.627084 22.4752L-8.32718 21.569L0.627084 22.4752ZM5.08399 39.4208L-2.26578 44.6151L-2.26578 44.6151L5.08399 39.4208ZM19.5699 49.2787L17.4351 58.0218L19.5699 49.2787ZM36.9689 47.2063L41.0977 55.2033L36.9689 47.2063ZM48.734 34.2216L40.3698 30.899L40.3698 30.899L48.734 34.2216ZM49.0858 16.7031L40.5949 19.6872V19.6872L49.0858 16.7031ZM23.1406 3.87161L24.1287 12.8172L23.1406 3.87161ZM22.3989 0.185292L21.2823 -8.74517L22.3989 0.185292ZM23.5155 9.11575C26.9269 8.68921 30.3975 9.37234 33.405 11.0814L42.2981 -4.56828C35.9067 -8.20025 28.532 -9.65164 21.2823 -8.74517L23.5155 9.11575ZM24.1287 12.8172C24.5759 12.7678 25.0332 12.7421 25.4999 12.7421V-5.25789C24.3717 -5.25789 23.2546 -5.19572 22.1524 -5.07398L24.1287 12.8172ZM25.4999 12.7421C32.2654 12.7421 37.7499 18.2266 37.7499 24.9921H55.7499C55.7499 8.28549 42.2065 -5.25789 25.4999 -5.25789V12.7421ZM37.7499 24.9921C37.7499 31.7576 32.2654 37.2421 25.4999 37.2421V55.2421C42.2065 55.2421 55.7499 41.6987 55.7499 24.9921H37.7499ZM25.4999 37.2421C18.7344 37.2421 13.2499 31.7576 13.2499 24.9921H-4.75007C-4.75007 41.6987 8.79331 55.2421 25.4999 55.2421V37.2421ZM13.2499 24.9921C13.2499 21.8533 14.4187 19.0089 16.3588 16.8369L2.93435 4.84588C-1.83828 10.189 -4.75007 17.2613 -4.75007 24.9921H13.2499ZM9.58135 23.3813C9.92961 19.9399 11.3823 16.7151 13.7052 14.181L0.436442 2.01793C-4.50015 7.40327 -7.5871 14.2557 -8.32718 21.569L9.58135 23.3813ZM12.4338 34.2265C10.2058 31.0739 9.19267 27.2221 9.58135 23.3813L-8.32718 21.569C-9.15312 29.7307 -7.00033 37.9159 -2.26578 44.6151L12.4338 34.2265ZM21.7048 40.5355C17.9545 39.6198 14.6618 37.3791 12.4338 34.2265L-2.26578 44.6151C2.46877 51.3144 9.46579 56.0759 17.4351 58.0218L21.7048 40.5355ZM32.8401 39.2092C29.4099 40.9802 25.455 41.4513 21.7048 40.5355L17.4351 58.0218C25.4044 59.9677 33.8085 58.9667 41.0977 55.2033L32.8401 39.2092ZM40.3698 30.899C38.9446 34.4867 36.2703 37.4382 32.8401 39.2092L41.0977 55.2033C48.3869 51.44 54.0697 45.1681 57.0982 37.5442L40.3698 30.899ZM40.5949 19.6872C41.8749 23.3293 41.7949 27.3113 40.3698 30.899L57.0982 37.5442C60.1267 29.9202 60.2967 21.4584 57.5767 13.7191L40.5949 19.6872ZM33.405 11.0814C36.7613 12.9887 39.315 16.0452 40.5949 19.6872L57.5767 13.7191C54.8568 5.97971 49.4304 -0.515292 42.2981 -4.56828L33.405 11.0814ZM16.2334 1.97284C12.2562 -2.26347 4.97862 -2.93714 0.436442 2.01793L13.7052 14.181C10.5625 17.6093 5.6701 17.0195 3.1105 14.2931L16.2334 1.97284ZM16.3588 16.8369C19.8218 12.96 20.4668 6.48205 16.2334 1.97284L3.1105 14.2931C0.294508 11.2936 0.850921 7.17837 2.93435 4.84588L16.3588 16.8369ZM12.099 4.10607C13.3229 10.1644 18.9701 13.387 24.1287 12.8172L22.1524 -5.07398C25.2553 -5.41673 28.9284 -3.48909 29.7427 0.541912L12.099 4.10607ZM21.2823 -8.74517C14.6134 -7.91133 10.9486 -1.58909 12.099 4.10607L29.7427 0.541912C30.4833 4.20824 28.1305 8.53871 23.5155 9.11575L21.2823 -8.74517Z" fill="#264B91" mask="url(#path-4-inside-1_1027_2496)"/>
<defs>
<clipPath id="clip0_1027_2496">
<rect width="27.5" height="27.5" fill="white" transform="translate(11.75 11.2422)"/>
</clipPath>
</defs>
</svg>
