<svg width="51" height="50" viewBox="0 0 51 50" fill="none" xmlns="http://www.w3.org/2000/svg">
<circle cx="25.5" cy="24.9922" r="25" fill="white"/>
<circle cx="25.5" cy="24.9922" r="23" stroke="#264B91" stroke-opacity="0.15" stroke-width="4"/>
<g clip-path="url(#clip0_1027_2510)">
<path d="M29.9648 18.7422H37.1077V25.885" stroke="#264B91" stroke-width="5" stroke-linecap="round" stroke-linejoin="round"/>
<path d="M37.1069 18.7422L27.0176 28.8315C26.8507 28.9951 26.6263 29.0867 26.3926 29.0867C26.1589 29.0867 25.9345 28.9951 25.7676 28.8315L21.6604 24.7243C21.4935 24.5607 21.2691 24.4691 21.0354 24.4691C20.8017 24.4691 20.5773 24.5607 20.4104 24.7243L13.8926 31.2422" stroke="#264B91" stroke-width="5" stroke-linecap="round" stroke-linejoin="round"/>
</g>
<mask id="path-5-inside-1_1027_2510" fill="white">
<path fill-rule="evenodd" clip-rule="evenodd" d="M36.4282 2.50722C32.0632 0.38577 27.1881 -0.413495 22.3989 0.185277C21.3719 0.313669 20.7159 1.30957 20.9208 2.324C21.1256 3.33768 22.1127 3.9852 23.1406 3.87165C23.9153 3.78608 24.7025 3.74215 25.5 3.74215C37.236 3.74215 46.75 13.2561 46.75 24.9921C46.75 36.7282 37.236 46.2421 25.5 46.2421C13.7639 46.2421 4.25 36.7282 4.25 24.9921C4.25 23.4429 4.41578 21.9324 4.73058 20.4774C4.94921 19.4669 4.40695 18.4185 3.41988 18.1109C2.4326 17.8032 1.37547 18.3532 1.14251 19.3607C0.0551164 24.0636 0.349839 28.9956 2.0124 33.5557C3.88938 38.7038 7.40581 43.0927 12.0207 46.0471C16.6357 49.0016 22.0935 50.358 27.5546 49.9076C33.0157 49.4573 38.1776 47.2252 42.2462 43.5546C46.3148 39.8841 49.0648 34.9785 50.0731 29.5924C51.0814 24.2063 50.2922 18.6382 47.8268 13.7444C45.3615 8.85071 41.3566 4.90253 36.4282 2.50722Z"/>
</mask>
<path fill-rule="evenodd" clip-rule="evenodd" d="M36.4282 2.50722C32.0632 0.38577 27.1881 -0.413495 22.3989 0.185277C21.3719 0.313669 20.7159 1.30957 20.9208 2.324C21.1256 3.33768 22.1127 3.9852 23.1406 3.87165C23.9153 3.78608 24.7025 3.74215 25.5 3.74215C37.236 3.74215 46.75 13.2561 46.75 24.9921C46.75 36.7282 37.236 46.2421 25.5 46.2421C13.7639 46.2421 4.25 36.7282 4.25 24.9921C4.25 23.4429 4.41578 21.9324 4.73058 20.4774C4.94921 19.4669 4.40695 18.4185 3.41988 18.1109C2.4326 17.8032 1.37547 18.3532 1.14251 19.3607C0.0551164 24.0636 0.349839 28.9956 2.0124 33.5557C3.88938 38.7038 7.40581 43.0927 12.0207 46.0471C16.6357 49.0016 22.0935 50.358 27.5546 49.9076C33.0157 49.4573 38.1776 47.2252 42.2462 43.5546C46.3148 39.8841 49.0648 34.9785 50.0731 29.5924C51.0814 24.2063 50.2922 18.6382 47.8268 13.7444C45.3615 8.85071 41.3566 4.90253 36.4282 2.50722Z" fill="#C4C4C4"/>
<path d="M36.4282 2.50722L40.3623 -5.58737L40.3623 -5.58737L36.4282 2.50722ZM2.0124 33.5557L10.4679 30.4728L2.0124 33.5557ZM27.5546 49.9076L26.8149 40.9381L27.5546 49.9076ZM42.2462 43.5546L36.2176 36.8722L36.2176 36.8722L42.2462 43.5546ZM50.0731 29.5924L41.2268 27.9363V27.9363L50.0731 29.5924ZM47.8268 13.7444L55.8645 9.69524V9.69523L47.8268 13.7444ZM1.14251 19.3607L-7.62615 17.3332L1.14251 19.3607ZM22.3989 0.185277L21.2823 -8.7452L22.3989 0.185277ZM23.5154 9.11575C26.5804 8.73255 29.7006 9.24413 32.494 10.6018L40.3623 -5.58737C34.4259 -8.47259 27.7957 -9.55954 21.2823 -8.7452L23.5154 9.11575ZM24.1288 12.8172C24.5759 12.7678 25.0333 12.7422 25.5 12.7422V-5.25785C24.3717 -5.25785 23.2546 -5.19568 22.1525 -5.07393L24.1288 12.8172ZM25.5 12.7422C32.2655 12.7422 37.75 18.2267 37.75 24.9921H55.75C55.75 8.28554 42.2066 -5.25785 25.5 -5.25785V12.7422ZM37.75 24.9921C37.75 31.7576 32.2655 37.2421 25.5 37.2421V55.2421C42.2066 55.2421 55.75 41.6988 55.75 24.9921H37.75ZM25.5 37.2421C18.7345 37.2421 13.25 31.7576 13.25 24.9921H-4.75C-4.75 41.6988 8.79338 55.2421 25.5 55.2421V37.2421ZM13.25 24.9921C13.25 24.0868 13.3467 23.2142 13.5271 22.3806L-4.0659 18.5743C-4.51514 20.6507 -4.75 22.7991 -4.75 24.9921H13.25ZM10.4679 30.4728C9.40393 27.5545 9.21526 24.3979 9.91117 21.3882L-7.62615 17.3332C-9.10503 23.7293 -8.70425 30.4368 -6.44314 36.6385L10.4679 30.4728ZM16.8733 38.4674C13.9197 36.5765 11.6692 33.7676 10.4679 30.4728L-6.44314 36.6385C-3.89044 43.64 0.891902 49.6088 7.16822 53.6269L16.8733 38.4674ZM26.8149 40.9381C23.3198 41.2263 19.8268 40.3582 16.8733 38.4674L7.16822 53.6269C13.4445 57.645 20.8672 59.4897 28.2943 58.8772L26.8149 40.9381ZM36.2176 36.8722C33.6137 39.2213 30.3101 40.6499 26.8149 40.9381L28.2943 58.8772C35.7214 58.2647 42.7415 55.229 48.2749 50.2371L36.2176 36.8722ZM41.2268 27.9363C40.5815 31.3834 38.8215 34.523 36.2176 36.8722L48.2749 50.2371C53.8082 45.2452 57.5481 38.5735 58.9194 31.2485L41.2268 27.9363ZM39.7892 17.7936C41.367 20.9256 41.8721 24.4892 41.2268 27.9363L58.9194 31.2485C60.2907 23.9234 59.2174 16.3507 55.8645 9.69524L39.7892 17.7936ZM32.494 10.6018C35.6482 12.1348 38.2113 14.6617 39.7892 17.7936L55.8645 9.69523C52.5116 3.03977 47.0649 -2.32976 40.3623 -5.58737L32.494 10.6018ZM6.09771 9.51851C0.551444 7.79001 -6.11238 10.7863 -7.62615 17.3332L9.91117 21.3882C8.86332 25.9201 4.31375 27.8164 0.742051 26.7033L6.09771 9.51851ZM13.5271 22.3806C14.624 17.3104 12.0021 11.3586 6.09771 9.51851L0.742051 26.7033C-3.18817 25.4784 -4.72559 21.6234 -4.0659 18.5743L13.5271 22.3806ZM12.099 4.10608C13.3229 10.1644 18.9701 13.3871 24.1288 12.8172L22.1525 -5.07393C25.2553 -5.41668 28.9283 -3.48908 29.7426 0.541923L12.099 4.10608ZM21.2823 -8.7452C14.6132 -7.91138 10.9486 -1.58889 12.099 4.10608L29.7426 0.541923C30.4832 4.20802 28.1307 8.53872 23.5154 9.11575L21.2823 -8.7452Z" fill="#264B91" mask="url(#path-5-inside-1_1027_2510)"/>
<defs>
<clipPath id="clip0_1027_2510">
<rect width="27.5" height="28.3871" fill="white" transform="translate(11.75 10.8242)"/>
</clipPath>
</defs>
</svg>
