<?xml version="1.0" encoding="UTF-8"?>
<!DOCTYPE svg PUBLIC "-//W3C//DTD SVG 1.1//EN" "http://www.w3.org/Graphics/SVG/1.1/DTD/svg11.dtd">
<!-- Creator: CorelDRAW -->
<svg xmlns="http://www.w3.org/2000/svg" xml:space="preserve" width="135.424mm" height="131.153mm" version="1.1" style="shape-rendering:geometricPrecision; text-rendering:geometricPrecision; image-rendering:optimizeQuality; fill-rule:evenodd; clip-rule:evenodd"
viewBox="0 0 882.89 855.05"
 xmlns:xlink="http://www.w3.org/1999/xlink"
 xmlns:xodm="http://www.corel.com/coreldraw/odm/2003">
 <defs>
  <style type="text/css">
   <![CDATA[
    .fil0 {fill:#2B2A29}
   ]]>
  </style>
 </defs>
 <g id="Layer_x0020_1">
  <metadata id="CorelCorpID_0Corel-Layer"/>
  <g id="_2825253141568">
   <path class="fil0" d="M338.07 367.46c0,-60.83 66.57,-98.04 119.07,-60.41 27.5,19.71 23.59,42.9 52.16,14.26 18.72,-18.77 38.08,-32.83 70.42,-28.2 47.4,6.79 80.54,56.21 54.55,108.31 -9.53,19.1 -81.47,86.87 -100.81,106.21 -10.08,10.08 -31.98,34.37 -41.84,40.97 -8.07,-5.4 -109.29,-108.43 -125.51,-124.64 -7.9,-7.9 -13.29,-12.06 -18.87,-22.53 -4.4,-8.25 -9.16,-22.09 -9.16,-33.97zm32.78 -93.16c4.47,-9.31 7.23,-17.71 12.77,-26.91 32.32,-53.72 79.24,-45.54 135.6,-45.54 46.71,0 83.29,37.5 91.43,72.46 -9.62,-0.8 -47.63,-19.32 -89.66,5.22 -19.75,11.53 -19.58,17.54 -29.38,24.1 -4.4,-2.94 -9.16,-7.88 -14.04,-11.83 -6.25,-5.06 -7.74,-7.46 -15.84,-11.76 -25.28,-13.41 -32.16,-12.63 -59.82,-12.63 -14.02,0 -19.81,5.97 -31.05,6.9zm324.33 -72.46c61.36,0 103.19,-9.05 137.72,43.43 13.99,21.26 18.13,40.85 22,65.99 4.16,27.06 11.53,46.3 -24.51,56.84 -49.29,14.42 -86.89,11.19 -133.5,11.46 -12.48,0.07 -17.2,-1.75 -29.3,-1.75 7.19,-14.98 -5.36,-49.2 -10.32,-58.69 -13.87,-26.57 -11.24,-5.85 -18,-37.21 -9.37,-43.49 -27.6,-33.39 2,-59.8 11.51,-10.27 32.67,-20.27 53.91,-20.27zm-381.26 175.97c-14.28,0 -21.62,1.73 -36.23,1.73 -30.15,0 -153.54,4.36 -153.54,-36.23 0,-15.64 3.72,-44.33 7.61,-57.95 12.43,-43.55 40.24,-83.52 94.18,-83.52 38.8,0 72.86,-4.78 102.36,11.51 6.93,3.83 10.14,6.89 15.4,12.21 24.48,24.78 10.34,3.9 -2.82,65.34 -4.48,20.9 -31.82,28.4 -26.95,86.91zm351.94 -281.2l0 -13.8c0,-28.95 28.2,-56.93 56.93,-56.93l8.63 0c28.51,0 56.93,28.17 56.93,56.93 0,24.53 -1.43,46.91 -14.79,66.29 -37.75,54.75 -107.7,22.24 -107.7,-52.49zm-236.35 1.73l0 -13.8c0,-32.4 29.3,-58.66 62.11,-58.66 30.64,0 60.38,26.58 60.38,56.93 0,24.65 -0.84,46.75 -15.24,67.57 -36.76,53.16 -107.25,19.64 -107.25,-52.04zm-169.07 77.63c-24.49,0 -39.15,-6.35 -52.14,-27.22 -17.01,-27.32 -24.75,-80.27 3.36,-106.09 3.5,-3.22 13.47,-9.67 17.68,-11.65 24.08,-11.31 53.51,-4.02 72.1,15.97 33.03,35.5 8.25,128.99 -41.01,128.99zm-93.16 -89.71c0,24.55 6.48,55.33 18.6,74.56 4.5,7.13 10.03,12.4 14.18,18.6 -51.38,11.97 -82.13,55.06 -93.52,103.15l-8.26 57.29c0,68.32 118.38,65.56 167.34,65.56 20.63,0 36.75,-3.45 55.21,-3.45 1.79,21.53 62.62,75.56 79.79,92.73 7.11,7.11 80.62,84.97 89.28,84.97 10.24,0 37.87,-31.84 46.15,-40.11 24.39,-24.38 90.66,-88.38 109.55,-109.55 7.45,-8.35 11.58,-18.14 16.82,-28.04 7.38,0 7.05,0.91 12.34,1.46 50.98,5.32 153.96,2.77 190.57,-24.55 23.35,-17.42 17.86,-45.67 14.56,-70.16 -1.31,-9.69 -2.91,-19.74 -4.88,-27.9 -4.43,-18.27 -11,-32.61 -19.24,-46.31 -16.65,-27.68 -41.53,-47.45 -74.3,-55.09 2.63,-3.92 4.25,-4.71 7.18,-8.35 18.59,-23.13 25.6,-53.79 25.6,-84.81 0,-46.3 -40,-86.26 -86.26,-86.26 -49.15,0 -87.98,37.8 -87.98,91.43 0,25.18 6.97,51.01 19.04,70.67 4.02,6.55 9.89,11.56 13.74,17.31 -19.54,4.55 -57.94,24.08 -62.11,39.68l-3.45 0c-1.66,-6.2 -6.36,-9.32 -10.76,-13.39 -13.78,-12.75 -32.46,-21.88 -51.35,-26.29 7.93,-11.84 12.44,-9.72 23.45,-36.94 12.52,-30.96 14.39,-76.18 -6.16,-104.56 -32.25,-44.55 -93.46,-50.6 -132.45,-11.62 -30.37,30.37 -32.52,74.6 -17.22,114.7 10.02,26.25 15.97,26.88 23.69,38.41 -23.77,5.54 -48.91,19.97 -62.11,39.68 -5.26,-3.52 -8.55,-7.92 -13.33,-12.54 -7.37,-7.12 -21.7,-16.62 -31.22,-20.53 -5.09,-2.09 -14.72,-4.42 -19.27,-6.6 2.32,-8.71 10.69,-8.71 21.46,-35.47 10.91,-27.12 14.59,-66.36 1.01,-93.96 -31.88,-64.78 -122.44,-67.98 -157.06,1.74 -3.74,7.52 -8.59,23.45 -8.59,34.54z"/>
   <path class="fil0" d="M132.77 583.11c19.4,-1.61 88.65,-34.5 127.66,-34.5 19.28,0 42.17,10.98 58.66,18.98l107.46 47.81c9.87,4.19 17.19,8.3 22.96,16.72 13.84,20.22 13.08,55.56 -8.71,65.81 -18.85,8.86 -32.98,0.94 -51.24,-5.86 -10.03,-3.74 -80.12,-31.09 -85.59,-30.56 -8.28,0.8 -10.76,7.01 -10.76,14.78 0,9.98 46.36,24.31 58.02,28.24 32.36,10.89 94.49,47.41 124.53,-7.86 15.68,-28.85 -14.74,-17.91 59.18,-42.61l168.87 -58.86c17.18,0 27.6,16.31 27.6,36.23 0,14.88 -22.45,22.69 -33.33,28.77l-126.54 64.96c-29.1,14.55 -55.26,28.49 -84.53,43.13 -7.59,3.79 -13.13,6.53 -20.72,10.33 -58.31,29.14 -56.43,40.1 -126.29,14.77 -16.9,-6.13 -116.27,-45.37 -126.51,-43.4 -9.32,1.79 -20.52,6.67 -28.96,7.37 -6.19,-12.91 -47.62,-165.62 -51.76,-174.24zm-108.69 -10.35c11.75,-2.74 65.28,-20.5 74.18,-20.7 0.91,10.89 73.42,247.89 74.18,257.05 -15.51,3.61 -62.5,19.87 -72.46,20.7 -5.01,-10.43 -60.42,-205.6 -70.95,-239.59 -1.37,-4.43 -3.14,-13.4 -4.96,-17.46zm101.79 -13.8c-2.74,-11.76 -6.48,-23.79 -17.49,-29.09 -15.19,-7.31 -20.99,-1.44 -39.06,3.59l-54.42 16.32c-28.15,13.77 -9.2,49.75 -1.37,76.67l59.45 202.77c2.99,10.19 4.05,15.18 12.13,20.65 7.54,5.11 15.39,6.55 24.88,3.83 16.32,-4.69 34.37,-10.28 50.76,-14.88 25.21,-7.07 35.86,-9.78 35.86,-34.88 0,-9.85 -4.4,-13.14 -5.18,-22.43 30.87,-2.57 2.63,-16.68 77.13,12.58l77.04 28.2c68.5,23.34 83.01,3.47 154.64,-32.15l207.6 -106.39c21.85,-10.89 49.45,-24.39 49.45,-55.78 0,-27.52 -22.67,-56.93 -48.3,-56.93 -16.21,0 -19.61,1.34 -36.73,8.12 -15.62,6.18 -183.22,65.42 -190.99,66.06 -0.39,-17.31 -18.3,-41.07 -36.94,-49.32l-59.67 -26.59c-19.51,-9.46 -39.55,-17 -59.81,-26.45 -69.3,-32.29 -84.88,-21.33 -165.97,5.96 -7.46,2.51 -25.11,9.48 -32.99,10.14z"/>
   <path class="fil0" d="M477.81 370.91l0 37.95c-23.38,0 -55.21,-5.16 -55.21,12.08 0,19.08 27.71,13.8 55.21,13.8 0,21.6 -4.88,55.21 12.08,55.21 19.32,0 13.8,-25.79 13.8,-55.21 33.11,0 55.21,5.44 55.21,-15.53 0,-14.99 -37.12,-10.35 -55.21,-10.35 0,-24.4 5.16,-55.21 -12.08,-55.21 -10.28,0 -13.8,6.96 -13.8,17.25z"/>
  </g>
 </g>
</svg>
